<svg xmlns="http://www.w3.org/2000/svg" xmlns:xlink="http://www.w3.org/1999/xlink" width="2000" zoomAndPan="magnify" viewBox="0 0 1500 374.999991" height="500" preserveAspectRatio="xMidYMid meet" version="1.0"><defs><g/><clipPath id="d7caffc9de"><path d="M 654 77 L 874 77 L 874 353 L 654 353 Z M 654 77 " clip-rule="nonzero"/></clipPath><clipPath id="4ab97e9087"><path d="M 654.355469 86.0625 L 862.300781 77.167969 L 873.679688 343.164062 L 665.734375 352.058594 Z M 654.355469 86.0625 " clip-rule="nonzero"/></clipPath><clipPath id="34791151cc"><path d="M 394.996094 97.15625 L 1279.625 59.316406 L 1317.46875 943.945312 L 432.835938 981.789062 Z M 394.996094 97.15625 " clip-rule="nonzero"/></clipPath><clipPath id="433a4e0307"><path d="M 629 15 L 923 15 L 923 286 L 629 286 Z M 629 15 " clip-rule="nonzero"/></clipPath><clipPath id="c22b8aa075"><path d="M 697.558594 -58.945312 L 922.121094 -6.167969 L 853.667969 285.089844 L 629.105469 232.308594 Z M 697.558594 -58.945312 " clip-rule="nonzero"/></clipPath><clipPath id="6e952b9022"><path d="M 587.488281 -84.816406 L 1556.65625 142.972656 L 1328.871094 1112.140625 L 359.699219 884.351562 Z M 587.488281 -84.816406 " clip-rule="nonzero"/></clipPath></defs><g fill="#000000" fill-opacity="1"><g transform="translate(14.918298, 284.905427)"><g><path d="M 13.109375 0 L 1.625 -107.21875 L 22.59375 -107.21875 L 28.578125 -39.5625 L 34.578125 -107.21875 L 54.546875 -107.21875 L 60.28125 -39.5625 L 66.03125 -107.21875 L 87.25 -107.21875 L 75.515625 0 L 49.796875 0 L 44.4375 -51.671875 L 39.3125 0 Z M 13.109375 0 "/></g></g></g><g fill="#000000" fill-opacity="1"><g transform="translate(103.790123, 284.905427)"><g><path d="M 29.953125 1 C 20.546875 1 13.804688 -1.578125 9.734375 -6.734375 C 5.660156 -11.898438 3.625 -19.597656 3.625 -29.828125 L 3.625 -66.53125 C 3.625 -74.925781 6.035156 -81.328125 10.859375 -85.734375 C 15.679688 -90.148438 22.421875 -92.359375 31.078125 -92.359375 C 48.628906 -92.359375 57.40625 -83.75 57.40625 -66.53125 L 57.40625 -59.90625 C 57.40625 -53.25 57.328125 -47.84375 57.171875 -43.6875 L 25.46875 -43.6875 L 25.46875 -25.96875 C 25.46875 -22.800781 25.796875 -20.320312 26.453125 -18.53125 C 27.117188 -16.738281 28.535156 -15.84375 30.703125 -15.84375 C 32.367188 -15.84375 33.554688 -16.34375 34.265625 -17.34375 C 34.972656 -18.34375 35.390625 -19.488281 35.515625 -20.78125 C 35.640625 -22.070312 35.703125 -23.960938 35.703125 -26.453125 L 35.703125 -35.328125 L 57.40625 -35.328125 L 57.40625 -30.078125 C 57.40625 -19.429688 55.347656 -11.585938 51.234375 -6.546875 C 47.117188 -1.515625 40.023438 1 29.953125 1 Z M 35.703125 -54.546875 L 35.703125 -66.28125 C 35.703125 -72.851562 34.078125 -76.140625 30.828125 -76.140625 C 27.171875 -76.140625 25.34375 -72.851562 25.34375 -66.28125 L 25.34375 -54.546875 Z M 35.703125 -54.546875 "/></g></g></g><g fill="#000000" fill-opacity="1"><g transform="translate(164.702271, 284.905427)"><g><path d="M 4.375 0 L 4.375 -107.84375 L 26.578125 -107.84375 L 26.578125 0 Z M 4.375 0 "/></g></g><g transform="translate(195.657631, 284.905427)"><g><path d="M 31.828125 1 C 21.835938 1 14.640625 -1.535156 10.234375 -6.609375 C 5.828125 -11.691406 3.625 -19.472656 3.625 -29.953125 L 3.625 -58.15625 C 3.625 -66.0625 4.472656 -72.488281 6.171875 -77.4375 C 7.878906 -82.394531 10.75 -86.117188 14.78125 -88.609375 C 18.820312 -91.109375 24.421875 -92.359375 31.578125 -92.359375 C 39.398438 -92.359375 45.765625 -90.316406 50.671875 -86.234375 C 55.578125 -82.160156 58.03125 -76.460938 58.03125 -69.140625 L 58.03125 -55.171875 L 35.828125 -55.171875 L 35.828125 -68.015625 C 35.828125 -70.429688 35.492188 -72.285156 34.828125 -73.578125 C 34.160156 -74.867188 32.867188 -75.515625 30.953125 -75.515625 C 27.378906 -75.515625 25.59375 -72.972656 25.59375 -67.890625 L 25.59375 -23.59375 C 25.59375 -21.507812 26.023438 -19.738281 26.890625 -18.28125 C 27.765625 -16.820312 29.078125 -16.09375 30.828125 -16.09375 C 32.578125 -16.09375 33.890625 -16.800781 34.765625 -18.21875 C 35.640625 -19.632812 36.035156 -21.46875 35.953125 -23.71875 L 35.828125 -39.0625 L 58.03125 -39.0625 L 58.03125 -23.09375 C 58.03125 -15.601562 55.597656 -9.710938 50.734375 -5.421875 C 45.867188 -1.140625 39.566406 1 31.828125 1 Z M 31.828125 1 "/></g></g></g><g fill="#000000" fill-opacity="1"><g transform="translate(256.944238, 284.905427)"><g><path d="M 30.953125 1 C 12.734375 1 3.625 -8.441406 3.625 -27.328125 L 3.625 -64.03125 C 3.625 -72.6875 6.054688 -79.570312 10.921875 -84.6875 C 15.785156 -89.800781 22.460938 -92.359375 30.953125 -92.359375 C 39.441406 -92.359375 46.117188 -89.800781 50.984375 -84.6875 C 55.847656 -79.570312 58.28125 -72.6875 58.28125 -64.03125 L 58.28125 -27.328125 C 58.28125 -8.441406 49.171875 1 30.953125 1 Z M 30.953125 -15.84375 C 32.703125 -15.84375 33.992188 -16.46875 34.828125 -17.71875 C 35.660156 -18.96875 36.078125 -20.675781 36.078125 -22.84375 L 36.078125 -67.53125 C 36.078125 -72.851562 34.367188 -75.515625 30.953125 -75.515625 C 27.546875 -75.515625 25.84375 -72.851562 25.84375 -67.53125 L 25.84375 -22.84375 C 25.84375 -20.675781 26.253906 -18.96875 27.078125 -17.71875 C 27.910156 -16.46875 29.203125 -15.84375 30.953125 -15.84375 Z M 30.953125 -15.84375 "/></g></g><g transform="translate(318.979777, 284.905427)"><g><path d="M 4.375 -91.359375 L 25.71875 -91.359375 L 25.71875 -80.75 C 26.707031 -84.664062 28.410156 -87.578125 30.828125 -89.484375 C 33.242188 -91.398438 36.65625 -92.359375 41.0625 -92.359375 C 44.644531 -92.359375 47.742188 -91.546875 50.359375 -89.921875 C 52.984375 -88.304688 54.835938 -86.082031 55.921875 -83.25 C 57.742188 -86.414062 59.78125 -88.722656 62.03125 -90.171875 C 64.28125 -91.628906 67.398438 -92.359375 71.390625 -92.359375 C 78.546875 -92.359375 83.515625 -90.171875 86.296875 -85.796875 C 89.085938 -81.429688 90.484375 -75.09375 90.484375 -66.78125 L 90.234375 0 L 68.265625 0 L 68.265625 -67.15625 C 68.265625 -73.0625 66.769531 -76.015625 63.78125 -76.015625 C 61.695312 -76.015625 60.195312 -74.992188 59.28125 -72.953125 C 58.363281 -70.910156 57.90625 -68.476562 57.90625 -65.65625 L 57.90625 0 L 36.078125 0 L 36.078125 -67.15625 C 36.078125 -69.726562 35.804688 -71.804688 35.265625 -73.390625 C 34.722656 -74.972656 33.578125 -75.765625 31.828125 -75.765625 C 29.578125 -75.765625 27.992188 -74.660156 27.078125 -72.453125 C 26.171875 -70.242188 25.71875 -67.601562 25.71875 -64.53125 L 25.71875 0 L 4.375 0 Z M 4.375 -91.359375 "/></g></g><g transform="translate(413.593335, 284.905427)"><g><path d="M 29.953125 1 C 20.546875 1 13.804688 -1.578125 9.734375 -6.734375 C 5.660156 -11.898438 3.625 -19.597656 3.625 -29.828125 L 3.625 -66.53125 C 3.625 -74.925781 6.035156 -81.328125 10.859375 -85.734375 C 15.679688 -90.148438 22.421875 -92.359375 31.078125 -92.359375 C 48.628906 -92.359375 57.40625 -83.75 57.40625 -66.53125 L 57.40625 -59.90625 C 57.40625 -53.25 57.328125 -47.84375 57.171875 -43.6875 L 25.46875 -43.6875 L 25.46875 -25.96875 C 25.46875 -22.800781 25.796875 -20.320312 26.453125 -18.53125 C 27.117188 -16.738281 28.535156 -15.84375 30.703125 -15.84375 C 32.367188 -15.84375 33.554688 -16.34375 34.265625 -17.34375 C 34.972656 -18.34375 35.390625 -19.488281 35.515625 -20.78125 C 35.640625 -22.070312 35.703125 -23.960938 35.703125 -26.453125 L 35.703125 -35.328125 L 57.40625 -35.328125 L 57.40625 -30.078125 C 57.40625 -19.429688 55.347656 -11.585938 51.234375 -6.546875 C 47.117188 -1.515625 40.023438 1 29.953125 1 Z M 35.703125 -54.546875 L 35.703125 -66.28125 C 35.703125 -72.851562 34.078125 -76.140625 30.828125 -76.140625 C 27.171875 -76.140625 25.34375 -72.851562 25.34375 -66.28125 L 25.34375 -54.546875 Z M 35.703125 -54.546875 "/></g></g><g transform="translate(474.505494, 284.905427)"><g/></g><g transform="translate(503.713373, 284.905427)"><g><path d="M 23.21875 1 C 17.476562 1 13.523438 -0.203125 11.359375 -2.609375 C 9.191406 -5.023438 8.109375 -8.898438 8.109375 -14.234375 L 8.109375 -71.265625 L 2 -71.265625 L 2 -87.875 L 8.109375 -87.875 L 8.109375 -107.21875 L 29.328125 -107.21875 L 29.328125 -87.875 L 35.578125 -87.875 L 35.578125 -71.265625 L 29.328125 -71.265625 L 29.328125 -19.96875 C 29.328125 -18.382812 29.453125 -17.21875 29.703125 -16.46875 C 29.953125 -15.726562 30.617188 -15.359375 31.703125 -15.359375 C 32.535156 -15.359375 33.328125 -15.398438 34.078125 -15.484375 C 34.828125 -15.566406 35.328125 -15.609375 35.578125 -15.609375 L 35.578125 -0.625 C 34.328125 -0.289062 32.515625 0.0625 30.140625 0.4375 C 27.765625 0.8125 25.457031 1 23.21875 1 Z M 23.21875 1 "/></g></g><g transform="translate(541.783473, 284.905427)"><g><path d="M 30.953125 1 C 12.734375 1 3.625 -8.441406 3.625 -27.328125 L 3.625 -64.03125 C 3.625 -72.6875 6.054688 -79.570312 10.921875 -84.6875 C 15.785156 -89.800781 22.460938 -92.359375 30.953125 -92.359375 C 39.441406 -92.359375 46.117188 -89.800781 50.984375 -84.6875 C 55.847656 -79.570312 58.28125 -72.6875 58.28125 -64.03125 L 58.28125 -27.328125 C 58.28125 -8.441406 49.171875 1 30.953125 1 Z M 30.953125 -15.84375 C 32.703125 -15.84375 33.992188 -16.46875 34.828125 -17.71875 C 35.660156 -18.96875 36.078125 -20.675781 36.078125 -22.84375 L 36.078125 -67.53125 C 36.078125 -72.851562 34.367188 -75.515625 30.953125 -75.515625 C 27.546875 -75.515625 25.84375 -72.851562 25.84375 -67.53125 L 25.84375 -22.84375 C 25.84375 -20.675781 26.253906 -18.96875 27.078125 -17.71875 C 27.910156 -16.46875 29.203125 -15.84375 30.953125 -15.84375 Z M 30.953125 -15.84375 "/></g></g></g><g fill="#000000" fill-opacity="1"><g transform="translate(603.80818, 284.905427)"><g/></g></g><g fill="#000000" fill-opacity="1"><g transform="translate(640.329007, 287.874983)"><g><path d="M 3.828125 0 L 3.828125 -109.640625 L 25.015625 -109.640625 L 25.015625 0 Z M 3.828125 0 "/></g></g></g><g fill="#000000" fill-opacity="1"><g transform="translate(663.940995, 287.874983)"><g><path d="M 22.84375 1.015625 C 17.394531 1.015625 13.285156 -0.28125 10.515625 -2.875 C 7.753906 -5.46875 5.925781 -8.910156 5.03125 -13.203125 C 4.144531 -17.503906 3.703125 -23.015625 3.703125 -29.734375 L 3.953125 -71.859375 C 3.953125 -78.492188 5.632812 -83.914062 9 -88.125 C 12.363281 -92.34375 17.109375 -94.453125 23.234375 -94.453125 C 29.273438 -94.453125 33.785156 -92.453125 36.765625 -88.453125 L 36.765625 -110.28125 L 59.09375 -110.28125 L 59.09375 0 L 36.765625 0 L 36.765625 -9.953125 C 35.484375 -6.296875 33.757812 -3.550781 31.59375 -1.71875 C 29.425781 0.101562 26.507812 1.015625 22.84375 1.015625 Z M 31.40625 -16.46875 C 33.613281 -16.46875 35.054688 -17.550781 35.734375 -19.71875 C 36.421875 -21.882812 36.765625 -24.800781 36.765625 -28.46875 L 36.765625 -67.515625 C 36.765625 -70.242188 36.378906 -72.539062 35.609375 -74.40625 C 34.847656 -76.28125 33.488281 -77.21875 31.53125 -77.21875 C 29.3125 -77.21875 27.835938 -76.34375 27.109375 -74.59375 C 26.390625 -72.851562 26.03125 -70.492188 26.03125 -67.515625 L 26.03125 -28.203125 C 26.03125 -20.378906 27.820312 -16.46875 31.40625 -16.46875 Z M 31.40625 -16.46875 "/></g></g></g><g fill="#000000" fill-opacity="1"><g transform="translate(722.141664, 287.874983)"><g><path d="M 30.640625 1.015625 C 21.015625 1.015625 14.117188 -1.617188 9.953125 -6.890625 C 5.785156 -12.171875 3.703125 -20.039062 3.703125 -30.5 L 3.703125 -68.03125 C 3.703125 -76.625 6.171875 -83.175781 11.109375 -87.6875 C 16.046875 -92.195312 22.9375 -94.453125 31.78125 -94.453125 C 49.738281 -94.453125 58.71875 -85.644531 58.71875 -68.03125 L 58.71875 -61.265625 C 58.71875 -54.460938 58.628906 -48.929688 58.453125 -44.671875 L 26.03125 -44.671875 L 26.03125 -26.546875 C 26.03125 -23.316406 26.367188 -20.785156 27.046875 -18.953125 C 27.734375 -17.117188 29.1875 -16.203125 31.40625 -16.203125 C 33.101562 -16.203125 34.3125 -16.710938 35.03125 -17.734375 C 35.757812 -18.765625 36.1875 -19.9375 36.3125 -21.25 C 36.4375 -22.570312 36.5 -24.507812 36.5 -27.0625 L 36.5 -36.125 L 58.71875 -36.125 L 58.71875 -30.765625 C 58.71875 -19.867188 56.609375 -11.847656 52.390625 -6.703125 C 48.179688 -1.554688 40.929688 1.015625 30.640625 1.015625 Z M 36.5 -55.78125 L 36.5 -67.78125 C 36.5 -74.5 34.84375 -77.859375 31.53125 -77.859375 C 27.78125 -77.859375 25.90625 -74.5 25.90625 -67.78125 L 25.90625 -55.78125 Z M 36.5 -55.78125 "/></g></g></g><g fill="#000000" fill-opacity="1"><g transform="translate(779.066, 287.874983)"><g><path d="M 21.4375 1.015625 C 14.207031 1.015625 9.25 -1.382812 6.5625 -6.1875 C 3.882812 -11 2.546875 -17.867188 2.546875 -26.796875 C 2.546875 -34.117188 3.503906 -39.738281 5.421875 -43.65625 C 7.335938 -47.570312 10 -50.441406 13.40625 -52.265625 C 16.8125 -54.097656 22 -56.117188 28.96875 -58.328125 L 35.09375 -60.375 L 35.09375 -69.953125 C 35.09375 -72.421875 34.601562 -74.3125 33.625 -75.625 C 32.65625 -76.945312 31.488281 -77.609375 30.125 -77.609375 C 28.9375 -77.609375 27.894531 -77.050781 27 -75.9375 C 26.101562 -74.832031 25.65625 -73.347656 25.65625 -71.484375 L 25.65625 -65.859375 L 3.953125 -65.859375 L 3.953125 -68.921875 C 3.953125 -78.117188 6.097656 -84.671875 10.390625 -88.578125 C 14.691406 -92.492188 21.695312 -94.453125 31.40625 -94.453125 C 39.144531 -94.453125 45.4375 -92.429688 50.28125 -88.390625 C 55.132812 -84.347656 57.5625 -78.625 57.5625 -71.21875 L 57.5625 0 L 35.359375 0 L 35.359375 -11.109375 C 34.253906 -7.273438 32.488281 -4.296875 30.0625 -2.171875 C 27.632812 -0.046875 24.757812 1.015625 21.4375 1.015625 Z M 30.25 -16.34375 C 31.945312 -16.34375 33.15625 -17.039062 33.875 -18.4375 C 34.601562 -19.84375 34.96875 -21.566406 34.96875 -23.609375 L 34.96875 -49.65625 C 31.65625 -48.375 29.207031 -46.753906 27.625 -44.796875 C 26.050781 -42.835938 25.265625 -40.117188 25.265625 -36.640625 L 25.265625 -24.640625 C 25.265625 -19.109375 26.925781 -16.34375 30.25 -16.34375 Z M 30.25 -16.34375 "/></g></g></g><g fill="#000000" fill-opacity="1"><g transform="translate(835.352171, 287.874983)"><g/></g></g><g fill="#000000" fill-opacity="1"><g transform="translate(859.857575, 287.874983)"><g><path d="M 3.703125 -31.78125 L 3.703125 -46.203125 L 35.859375 -46.203125 L 35.859375 -31.78125 Z M 3.703125 -31.78125 "/></g></g></g><g fill="#000000" fill-opacity="1"><g transform="translate(894.190765, 287.874983)"><g/></g></g><g fill="#000000" fill-opacity="1"><g transform="translate(918.696169, 287.874983)"><g><path d="M 30.890625 1.015625 C 20.929688 1.015625 13.738281 -1.445312 9.3125 -6.375 C 4.894531 -11.3125 2.6875 -19.269531 2.6875 -30.25 L 2.6875 -40.96875 L 24.25 -40.96875 L 24.25 -27.3125 C 24.25 -21.863281 25.992188 -19.140625 29.484375 -19.140625 C 31.441406 -19.140625 32.800781 -19.710938 33.5625 -20.859375 C 34.332031 -22.015625 34.71875 -23.953125 34.71875 -26.671875 C 34.71875 -30.242188 34.289062 -33.203125 33.4375 -35.546875 C 32.59375 -37.890625 31.507812 -39.847656 30.1875 -41.421875 C 28.863281 -42.992188 26.503906 -45.441406 23.109375 -48.765625 L 13.65625 -58.203125 C 6.34375 -65.347656 2.6875 -73.265625 2.6875 -81.953125 C 2.6875 -91.304688 4.832031 -98.429688 9.125 -103.328125 C 13.425781 -108.222656 19.703125 -110.671875 27.953125 -110.671875 C 37.828125 -110.671875 44.929688 -108.050781 49.265625 -102.8125 C 53.609375 -97.582031 55.78125 -89.394531 55.78125 -78.25 L 33.4375 -78.25 L 33.3125 -85.78125 C 33.3125 -87.21875 32.90625 -88.363281 32.09375 -89.21875 C 31.289062 -90.070312 30.164062 -90.5 28.71875 -90.5 C 27.019531 -90.5 25.742188 -90.03125 24.890625 -89.09375 C 24.035156 -88.15625 23.609375 -86.878906 23.609375 -85.265625 C 23.609375 -81.691406 25.648438 -77.988281 29.734375 -74.15625 L 42.5 -61.90625 C 45.476562 -59.007812 47.945312 -56.265625 49.90625 -53.671875 C 51.863281 -51.078125 53.4375 -48.015625 54.625 -44.484375 C 55.820312 -40.953125 56.421875 -36.757812 56.421875 -31.90625 C 56.421875 -21.101562 54.441406 -12.914062 50.484375 -7.34375 C 46.523438 -1.769531 39.992188 1.015625 30.890625 1.015625 Z M 30.890625 1.015625 "/></g></g></g><g fill="#000000" fill-opacity="1"><g transform="translate(972.174408, 287.874983)"><g><path d="M 30.640625 1.015625 C 21.015625 1.015625 14.117188 -1.617188 9.953125 -6.890625 C 5.785156 -12.171875 3.703125 -20.039062 3.703125 -30.5 L 3.703125 -68.03125 C 3.703125 -76.625 6.171875 -83.175781 11.109375 -87.6875 C 16.046875 -92.195312 22.9375 -94.453125 31.78125 -94.453125 C 49.738281 -94.453125 58.71875 -85.644531 58.71875 -68.03125 L 58.71875 -61.265625 C 58.71875 -54.460938 58.628906 -48.929688 58.453125 -44.671875 L 26.03125 -44.671875 L 26.03125 -26.546875 C 26.03125 -23.316406 26.367188 -20.785156 27.046875 -18.953125 C 27.734375 -17.117188 29.1875 -16.203125 31.40625 -16.203125 C 33.101562 -16.203125 34.3125 -16.710938 35.03125 -17.734375 C 35.757812 -18.765625 36.1875 -19.9375 36.3125 -21.25 C 36.4375 -22.570312 36.5 -24.507812 36.5 -27.0625 L 36.5 -36.125 L 58.71875 -36.125 L 58.71875 -30.765625 C 58.71875 -19.867188 56.609375 -11.847656 52.390625 -6.703125 C 48.179688 -1.554688 40.929688 1.015625 30.640625 1.015625 Z M 36.5 -55.78125 L 36.5 -67.78125 C 36.5 -74.5 34.84375 -77.859375 31.53125 -77.859375 C 27.78125 -77.859375 25.90625 -74.5 25.90625 -67.78125 L 25.90625 -55.78125 Z M 36.5 -55.78125 "/></g></g></g><g fill="#000000" fill-opacity="1"><g transform="translate(1029.098737, 287.874983)"><g><path d="M 21.4375 1.015625 C 14.207031 1.015625 9.25 -1.382812 6.5625 -6.1875 C 3.882812 -11 2.546875 -17.867188 2.546875 -26.796875 C 2.546875 -34.117188 3.503906 -39.738281 5.421875 -43.65625 C 7.335938 -47.570312 10 -50.441406 13.40625 -52.265625 C 16.8125 -54.097656 22 -56.117188 28.96875 -58.328125 L 35.09375 -60.375 L 35.09375 -69.953125 C 35.09375 -72.421875 34.601562 -74.3125 33.625 -75.625 C 32.65625 -76.945312 31.488281 -77.609375 30.125 -77.609375 C 28.9375 -77.609375 27.894531 -77.050781 27 -75.9375 C 26.101562 -74.832031 25.65625 -73.347656 25.65625 -71.484375 L 25.65625 -65.859375 L 3.953125 -65.859375 L 3.953125 -68.921875 C 3.953125 -78.117188 6.097656 -84.671875 10.390625 -88.578125 C 14.691406 -92.492188 21.695312 -94.453125 31.40625 -94.453125 C 39.144531 -94.453125 45.4375 -92.429688 50.28125 -88.390625 C 55.132812 -84.347656 57.5625 -78.625 57.5625 -71.21875 L 57.5625 0 L 35.359375 0 L 35.359375 -11.109375 C 34.253906 -7.273438 32.488281 -4.296875 30.0625 -2.171875 C 27.632812 -0.046875 24.757812 1.015625 21.4375 1.015625 Z M 30.25 -16.34375 C 31.945312 -16.34375 33.15625 -17.039062 33.875 -18.4375 C 34.601562 -19.84375 34.96875 -21.566406 34.96875 -23.609375 L 34.96875 -49.65625 C 31.65625 -48.375 29.207031 -46.753906 27.625 -44.796875 C 26.050781 -42.835938 25.265625 -40.117188 25.265625 -36.640625 L 25.265625 -24.640625 C 25.265625 -19.109375 26.925781 -16.34375 30.25 -16.34375 Z M 30.25 -16.34375 "/></g></g></g><g fill="#000000" fill-opacity="1"><g transform="translate(1085.384899, 287.874983)"><g><path d="M 4.46875 -93.4375 L 26.796875 -93.4375 L 26.796875 -83.09375 C 27.910156 -86.75 29.847656 -89.578125 32.609375 -91.578125 C 35.378906 -93.578125 38.804688 -94.578125 42.890625 -94.578125 L 42.890625 -75.953125 C 39.742188 -75.953125 36.273438 -75.503906 32.484375 -74.609375 C 28.691406 -73.710938 26.796875 -72.671875 26.796875 -71.484375 L 26.796875 0 L 4.46875 0 Z M 4.46875 -93.4375 "/></g></g></g><g fill="#000000" fill-opacity="1"><g transform="translate(1123.929991, 287.874983)"><g><path d="M 32.546875 1.015625 C 22.335938 1.015625 14.976562 -1.578125 10.46875 -6.765625 C 5.957031 -11.953125 3.703125 -19.910156 3.703125 -30.640625 L 3.703125 -59.484375 C 3.703125 -67.566406 4.570312 -74.140625 6.3125 -79.203125 C 8.0625 -84.265625 11 -88.070312 15.125 -90.625 C 19.25 -93.175781 24.972656 -94.453125 32.296875 -94.453125 C 40.296875 -94.453125 46.804688 -92.367188 51.828125 -88.203125 C 56.847656 -84.035156 59.359375 -78.207031 59.359375 -70.71875 L 59.359375 -56.421875 L 36.640625 -56.421875 L 36.640625 -69.5625 C 36.640625 -72.03125 36.296875 -73.921875 35.609375 -75.234375 C 34.929688 -76.554688 33.613281 -77.21875 31.65625 -77.21875 C 28 -77.21875 26.171875 -74.625 26.171875 -69.4375 L 26.171875 -24.125 C 26.171875 -22 26.613281 -20.191406 27.5 -18.703125 C 28.394531 -17.210938 29.738281 -16.46875 31.53125 -16.46875 C 33.3125 -16.46875 34.648438 -17.191406 35.546875 -18.640625 C 36.441406 -20.085938 36.847656 -21.957031 36.765625 -24.25 L 36.640625 -39.953125 L 59.359375 -39.953125 L 59.359375 -23.609375 C 59.359375 -15.953125 56.867188 -9.929688 51.890625 -5.546875 C 46.910156 -1.171875 40.460938 1.015625 32.546875 1.015625 Z M 32.546875 1.015625 "/></g></g></g><g fill="#000000" fill-opacity="1"><g transform="translate(1181.237225, 287.874983)"><g><path d="M 4.46875 -110.28125 L 27.4375 -110.28125 L 27.4375 -84.25 C 29.820312 -91.050781 34.375 -94.453125 41.09375 -94.453125 C 47.394531 -94.453125 52.160156 -92.453125 55.390625 -88.453125 C 58.628906 -84.453125 60.25 -78.960938 60.25 -71.984375 L 60.25 0 L 37.90625 0 L 37.90625 -70.578125 C 37.90625 -72.628906 37.4375 -74.289062 36.5 -75.5625 C 35.5625 -76.84375 34.203125 -77.484375 32.421875 -77.484375 C 30.890625 -77.484375 29.675781 -76.820312 28.78125 -75.5 C 27.882812 -74.175781 27.4375 -72.582031 27.4375 -70.71875 L 27.4375 0 L 4.46875 0 Z M 4.46875 -110.28125 "/></g></g></g><g fill="#000000" fill-opacity="1"><g transform="translate(1240.331345, 287.874983)"><g><path d="M 3.453125 0 L 3.453125 -18.640625 L 25.78125 -18.640625 L 25.78125 0 Z M 3.453125 0 "/></g></g></g><g fill="#000000" fill-opacity="1"><g transform="translate(1264.198618, 287.874983)"><g><path d="M 32.546875 1.015625 C 22.335938 1.015625 14.976562 -1.578125 10.46875 -6.765625 C 5.957031 -11.953125 3.703125 -19.910156 3.703125 -30.640625 L 3.703125 -59.484375 C 3.703125 -67.566406 4.570312 -74.140625 6.3125 -79.203125 C 8.0625 -84.265625 11 -88.070312 15.125 -90.625 C 19.25 -93.175781 24.972656 -94.453125 32.296875 -94.453125 C 40.296875 -94.453125 46.804688 -92.367188 51.828125 -88.203125 C 56.847656 -84.035156 59.359375 -78.207031 59.359375 -70.71875 L 59.359375 -56.421875 L 36.640625 -56.421875 L 36.640625 -69.5625 C 36.640625 -72.03125 36.296875 -73.921875 35.609375 -75.234375 C 34.929688 -76.554688 33.613281 -77.21875 31.65625 -77.21875 C 28 -77.21875 26.171875 -74.625 26.171875 -69.4375 L 26.171875 -24.125 C 26.171875 -22 26.613281 -20.191406 27.5 -18.703125 C 28.394531 -17.210938 29.738281 -16.46875 31.53125 -16.46875 C 33.3125 -16.46875 34.648438 -17.191406 35.546875 -18.640625 C 36.441406 -20.085938 36.847656 -21.957031 36.765625 -24.25 L 36.640625 -39.953125 L 59.359375 -39.953125 L 59.359375 -23.609375 C 59.359375 -15.953125 56.867188 -9.929688 51.890625 -5.546875 C 46.910156 -1.171875 40.460938 1.015625 32.546875 1.015625 Z M 32.546875 1.015625 "/></g></g></g><g fill="#000000" fill-opacity="1"><g transform="translate(1321.505819, 287.874983)"><g><path d="M 31.65625 1.015625 C 13.019531 1.015625 3.703125 -8.640625 3.703125 -27.953125 L 3.703125 -65.484375 C 3.703125 -74.328125 6.191406 -81.363281 11.171875 -86.59375 C 16.148438 -91.832031 22.976562 -94.453125 31.65625 -94.453125 C 40.332031 -94.453125 47.160156 -91.832031 52.140625 -86.59375 C 57.117188 -81.363281 59.609375 -74.328125 59.609375 -65.484375 L 59.609375 -27.953125 C 59.609375 -8.640625 50.289062 1.015625 31.65625 1.015625 Z M 31.65625 -16.203125 C 33.4375 -16.203125 34.753906 -16.84375 35.609375 -18.125 C 36.460938 -19.40625 36.890625 -21.148438 36.890625 -23.359375 L 36.890625 -69.046875 C 36.890625 -74.492188 35.144531 -77.21875 31.65625 -77.21875 C 28.164062 -77.21875 26.421875 -74.492188 26.421875 -69.046875 L 26.421875 -23.359375 C 26.421875 -21.148438 26.84375 -19.40625 27.6875 -18.125 C 28.539062 -16.84375 29.863281 -16.203125 31.65625 -16.203125 Z M 31.65625 -16.203125 "/></g></g></g><g fill="#000000" fill-opacity="1"><g transform="translate(1379.578833, 287.874983)"><g><path d="M 4.46875 -93.4375 L 26.296875 -93.4375 L 26.296875 -82.578125 C 27.316406 -86.578125 29.0625 -89.554688 31.53125 -91.515625 C 34 -93.472656 37.488281 -94.453125 42 -94.453125 C 45.65625 -94.453125 48.820312 -93.617188 51.5 -91.953125 C 54.1875 -90.296875 56.082031 -88.023438 57.1875 -85.140625 C 59.050781 -88.367188 61.132812 -90.726562 63.4375 -92.21875 C 65.738281 -93.707031 68.929688 -94.453125 73.015625 -94.453125 C 80.328125 -94.453125 85.410156 -92.21875 88.265625 -87.75 C 91.117188 -83.28125 92.546875 -76.789062 92.546875 -68.28125 L 92.28125 0 L 69.8125 0 L 69.8125 -68.671875 C 69.8125 -74.710938 68.28125 -77.734375 65.21875 -77.734375 C 63.09375 -77.734375 61.5625 -76.691406 60.625 -74.609375 C 59.6875 -72.523438 59.21875 -70.035156 59.21875 -67.140625 L 59.21875 0 L 36.890625 0 L 36.890625 -68.671875 C 36.890625 -71.304688 36.613281 -73.429688 36.0625 -75.046875 C 35.507812 -76.671875 34.335938 -77.484375 32.546875 -77.484375 C 30.253906 -77.484375 28.640625 -76.351562 27.703125 -74.09375 C 26.765625 -71.84375 26.296875 -69.140625 26.296875 -65.984375 L 26.296875 0 L 4.46875 0 Z M 4.46875 -93.4375 "/></g></g></g><g clip-path="url(#d7caffc9de)"><g clip-path="url(#4ab97e9087)"><g clip-path="url(#34791151cc)"><path fill="#ffde59" d="M 875.152344 962.867188 C 630.789062 973.320312 424.3125 782.472656 413.917969 539.472656 C 403.523438 296.472656 592.945312 88.6875 837.3125 78.234375 C 1081.675781 67.78125 1288.09375 257.265625 1298.546875 501.628906 C 1309 745.996094 1118.152344 952.472656 875.152344 962.867188 Z M 838.480469 105.539062 C 609.128906 115.351562 431.410156 308.957031 441.21875 538.304688 C 451.03125 767.652344 644.636719 945.375 873.984375 935.5625 C 1103.332031 925.753906 1281.054688 732.148438 1271.242188 502.796875 C 1261.433594 273.449219 1066.460938 95.785156 838.480469 105.539062 Z M 838.480469 105.539062 " fill-opacity="1" fill-rule="nonzero"/></g></g></g><g clip-path="url(#433a4e0307)"><g clip-path="url(#c22b8aa075)"><g clip-path="url(#6e952b9022)"><path fill="#38b6ff" d="M 844.285156 998.246094 C 576.566406 935.324219 411.023438 665.988281 473.59375 399.765625 C 536.167969 133.546875 804.355469 -33.847656 1072.074219 29.078125 C 1339.792969 92 1505.6875 359.839844 1442.765625 627.554688 C 1379.839844 895.273438 1110.507812 1060.816406 844.285156 998.246094 Z M 1065.042969 58.988281 C 813.777344 -0.0664062 562.5625 155.53125 503.507812 406.796875 C 444.453125 658.0625 600.050781 909.277344 851.316406 968.332031 C 1102.582031 1027.390625 1353.796875 871.792969 1412.851562 620.523438 C 1471.90625 369.257812 1314.8125 117.695312 1065.042969 58.988281 Z M 1065.042969 58.988281 " fill-opacity="1" fill-rule="nonzero"/></g></g></g></svg>