<svg xmlns="http://www.w3.org/2000/svg" xmlns:xlink="http://www.w3.org/1999/xlink" width="500" zoomAndPan="magnify" viewBox="0 0 375 374.999991" height="500" preserveAspectRatio="xMidYMid meet" version="1.0"><defs><clipPath id="9c4dbcd450"><path d="M 112.5 134.71875 L 262.5 134.71875 L 262.5 240.46875 L 112.5 240.46875 Z M 112.5 134.71875 " clip-rule="nonzero"/></clipPath></defs><rect x="-37.5" width="450" fill="#ffffff" y="-37.499999" height="449.999989" fill-opacity="1"/><rect x="-37.5" width="450" fill="#ffffff" y="-37.499999" height="449.999989" fill-opacity="1"/><rect x="-37.5" width="450" fill="#ffffff" y="-37.499999" height="449.999989" fill-opacity="1"/><g clip-path="url(#9c4dbcd450)"><path fill="#ff0000" d="M 259.226562 151.308594 C 258.792969 149.714844 258.164062 148.203125 257.339844 146.777344 C 256.511719 145.347656 255.515625 144.050781 254.351562 142.882812 C 253.1875 141.714844 251.890625 140.714844 250.464844 139.890625 C 249.039062 139.0625 247.53125 138.429688 245.9375 138 C 234.289062 134.8125 187.40625 134.8125 187.40625 134.8125 C 187.40625 134.8125 140.519531 134.90625 128.867188 138.09375 C 127.277344 138.523438 125.769531 139.15625 124.34375 139.984375 C 122.917969 140.808594 121.621094 141.808594 120.457031 142.976562 C 119.289062 144.144531 118.292969 145.441406 117.46875 146.871094 C 116.640625 148.296875 116.011719 149.808594 115.582031 151.402344 C 112.5 163.074219 112.5 187.476562 112.5 187.476562 C 112.5 187.476562 112.5 211.878906 115.679688 223.644531 C 116.109375 225.238281 116.738281 226.75 117.566406 228.175781 C 118.390625 229.605469 119.386719 230.902344 120.550781 232.070312 C 121.71875 233.238281 123.011719 234.234375 124.441406 235.0625 C 125.867188 235.890625 127.375 236.523438 128.964844 236.953125 C 140.613281 240.140625 187.5 240.140625 187.5 240.140625 C 187.5 240.140625 234.386719 240.140625 246.039062 236.957031 C 247.628906 236.523438 249.136719 235.894531 250.5625 235.066406 C 251.988281 234.238281 253.285156 233.242188 254.449219 232.074219 C 255.617188 230.90625 256.609375 229.609375 257.4375 228.179688 C 258.265625 226.75 258.894531 225.238281 259.324219 223.644531 C 262.5 211.972656 262.5 187.476562 262.5 187.476562 C 262.5 187.476562 262.40625 163.074219 259.226562 151.308594 Z M 259.226562 151.308594 " fill-opacity="1" fill-rule="nonzero"/></g><path fill="#ffffff" d="M 172.480469 210.042969 L 211.375 187.476562 L 172.480469 164.90625 Z M 172.480469 210.042969 " fill-opacity="1" fill-rule="nonzero"/></svg>