<svg xmlns="http://www.w3.org/2000/svg" xmlns:xlink="http://www.w3.org/1999/xlink" width="500" zoomAndPan="magnify" viewBox="0 0 375 374.999991" height="500" preserveAspectRatio="xMidYMid meet" version="1.0"><defs><clipPath id="5214747237"><path d="M 113 134 L 261 134 L 261 241.21875 L 113 241.21875 Z M 113 134 " clip-rule="nonzero"/></clipPath></defs><g clip-path="url(#5214747237)"><path fill="#000000" d="M 150.640625 136.089844 C 174.933594 134.183594 199.339844 134.183594 223.632812 136.089844 L 239.953125 137.367188 C 249.042969 138.078125 256.480469 144.90625 257.980469 153.914062 C 261.742188 176.453125 261.742188 199.464844 257.980469 222.003906 C 256.480469 231.011719 249.042969 237.835938 239.953125 238.550781 L 223.632812 239.828125 C 199.339844 241.730469 174.933594 241.730469 150.640625 239.828125 L 134.320312 238.550781 C 125.230469 237.835938 117.792969 231.011719 116.289062 222.003906 C 112.53125 199.464844 112.53125 176.453125 116.289062 153.914062 C 117.792969 144.90625 125.230469 138.078125 134.320312 137.367188 Z M 172.570312 205.980469 L 172.570312 169.9375 C 172.570312 168.234375 174.421875 167.183594 175.878906 168.058594 L 205.863281 186.082031 C 207.277344 186.933594 207.277344 188.984375 205.863281 189.835938 L 175.878906 207.855469 C 174.421875 208.734375 172.570312 207.679688 172.570312 205.980469 Z M 172.570312 205.980469 " fill-opacity="1" fill-rule="evenodd"/></g></svg>