<svg xmlns="http://www.w3.org/2000/svg" xmlns:xlink="http://www.w3.org/1999/xlink" width="500" zoomAndPan="magnify" viewBox="0 0 375 374.999991" height="500" preserveAspectRatio="xMidYMid meet" version="1.0"><defs><clipPath id="4a513ed7e4"><path d="M 113 113 L 262 113 L 262 262.5 L 113 262.5 Z M 113 113 " clip-rule="nonzero"/></clipPath><clipPath id="45176e1357"><path d="M 186.195312 113.332031 C 145.265625 114.136719 112.765625 147.902344 113.167969 188.90625 C 113.96875 229.910156 147.675781 262.472656 188.601562 262.070312 C 229.527344 261.265625 262.027344 227.5 261.628906 186.496094 C 260.824219 145.492188 227.121094 112.527344 186.195312 113.332031 Z M 165.730469 125.792969 C 161.316406 131.824219 157.304688 139.460938 154.496094 148.304688 L 135.234375 148.304688 C 142.859375 138.257812 153.292969 130.214844 165.730469 125.792969 Z M 129.617188 157.148438 L 151.6875 157.148438 C 149.679688 165.191406 148.878906 174.035156 148.476562 183.28125 L 122.398438 183.28125 C 122.796875 174.035156 125.605469 165.191406 129.617188 157.148438 Z M 122.398438 192.125 L 148.476562 192.125 C 148.878906 201.371094 149.679688 210.214844 151.6875 218.253906 L 129.617188 218.253906 C 125.605469 210.214844 122.796875 201.371094 122.398438 192.125 Z M 135.234375 226.695312 L 154.496094 226.695312 C 157.304688 235.539062 161.316406 243.578125 165.730469 249.207031 C 153.292969 244.785156 142.859375 237.148438 135.234375 226.695312 Z M 183.386719 252.421875 C 173.753906 249.207031 166.933594 236.34375 163.722656 226.695312 L 183.386719 226.695312 Z M 183.386719 218.253906 L 160.914062 218.253906 C 158.910156 210.214844 157.707031 201.371094 157.304688 192.125 L 183.386719 192.125 Z M 183.386719 183.28125 L 157.304688 183.28125 C 157.707031 174.035156 158.910156 165.191406 160.914062 157.148438 L 183.386719 157.148438 Z M 183.386719 148.304688 L 163.722656 148.304688 C 167.335938 138.660156 173.753906 125.792969 183.386719 122.578125 Z M 252.800781 183.28125 L 226.71875 183.28125 C 226.316406 174.035156 225.515625 165.191406 223.507812 157.148438 L 245.578125 157.148438 C 249.589844 165.191406 252.398438 174.035156 252.800781 183.28125 Z M 239.960938 148.304688 L 220.699219 148.304688 C 217.890625 139.460938 213.878906 131.421875 209.464844 125.792969 C 221.90625 130.214844 232.335938 138.257812 239.960938 148.304688 Z M 191.8125 122.980469 C 201.441406 126.195312 208.261719 139.058594 211.472656 148.707031 L 191.8125 148.707031 Z M 191.8125 157.148438 L 214.28125 157.148438 C 216.289062 165.191406 217.492188 174.035156 217.890625 183.28125 L 191.8125 183.28125 Z M 191.8125 192.125 L 217.890625 192.125 C 217.492188 201.371094 216.289062 210.214844 214.28125 218.253906 L 191.8125 218.253906 Z M 191.8125 252.421875 L 191.8125 226.695312 L 211.472656 226.695312 C 208.261719 236.34375 201.84375 249.207031 191.8125 252.421875 Z M 209.464844 249.207031 C 213.878906 243.175781 217.890625 235.539062 220.699219 226.695312 L 239.960938 226.695312 C 232.335938 237.148438 221.90625 244.785156 209.464844 249.207031 Z M 245.578125 218.253906 L 223.507812 218.253906 C 225.515625 210.214844 226.316406 201.371094 226.71875 192.125 L 252.800781 192.125 C 252.398438 201.371094 249.589844 210.214844 245.578125 218.253906 Z M 245.578125 218.253906 " clip-rule="evenodd"/></clipPath></defs><g clip-path="url(#4a513ed7e4)"><g clip-path="url(#45176e1357)"><path fill="#000000" d="M 112.773438 112.527344 L 112.773438 262.472656 L 262.023438 262.472656 L 262.023438 112.527344 Z M 112.773438 112.527344 " fill-opacity="1" fill-rule="nonzero"/></g></g></svg>