<svg xmlns="http://www.w3.org/2000/svg" xmlns:xlink="http://www.w3.org/1999/xlink" width="2000" zoomAndPan="magnify" viewBox="0 0 1500 749.999995" height="1000" preserveAspectRatio="xMidYMid meet" version="1.0"><defs><g/><clipPath id="b2664263b5"><path d="M 640 203 L 831 203 L 831 441 L 640 441 Z M 640 203 " clip-rule="nonzero"/></clipPath><clipPath id="01c3ea2216"><path d="M 640.867188 210.589844 L 820.699219 202.898438 L 830.542969 432.9375 L 650.707031 440.628906 Z M 640.867188 210.589844 " clip-rule="nonzero"/></clipPath><clipPath id="b3185e6395"><path d="M 416.566406 220.183594 L 1181.617188 187.457031 L 1214.34375 952.507812 L 449.292969 985.234375 Z M 416.566406 220.183594 " clip-rule="nonzero"/></clipPath><clipPath id="b7686d271d"><path d="M 619 149 L 873 149 L 873 383 L 619 383 Z M 619 149 " clip-rule="nonzero"/></clipPath><clipPath id="abf88b4a02"><path d="M 678.230469 85.183594 L 872.4375 130.828125 L 813.234375 382.714844 L 619.027344 337.070312 Z M 678.230469 85.183594 " clip-rule="nonzero"/></clipPath><clipPath id="4e10824470"><path d="M 583.039062 62.808594 L 1421.199219 259.808594 L 1224.203125 1097.96875 L 386.042969 900.96875 Z M 583.039062 62.808594 " clip-rule="nonzero"/></clipPath></defs><g fill="#000000" fill-opacity="1"><g transform="translate(87.865203, 382.554633)"><g><path d="M 11.328125 0 L 1.40625 -92.734375 L 19.546875 -92.734375 L 24.71875 -34.21875 L 29.90625 -92.734375 L 47.171875 -92.734375 L 52.140625 -34.21875 L 57.109375 -92.734375 L 75.453125 -92.734375 L 65.3125 0 L 43.078125 0 L 38.4375 -44.6875 L 34 0 Z M 11.328125 0 "/></g></g></g><g fill="#000000" fill-opacity="1"><g transform="translate(164.723725, 382.554633)"><g><path d="M 25.90625 0.859375 C 17.769531 0.859375 11.9375 -1.367188 8.40625 -5.828125 C 4.882812 -10.285156 3.125 -16.941406 3.125 -25.796875 L 3.125 -57.53125 C 3.125 -64.800781 5.210938 -70.34375 9.390625 -74.15625 C 13.566406 -77.976562 19.394531 -79.890625 26.875 -79.890625 C 42.0625 -79.890625 49.65625 -72.4375 49.65625 -57.53125 L 49.65625 -51.8125 C 49.65625 -46.0625 49.582031 -41.382812 49.4375 -37.78125 L 22.015625 -37.78125 L 22.015625 -22.453125 C 22.015625 -19.722656 22.300781 -17.582031 22.875 -16.03125 C 23.457031 -14.476562 24.6875 -13.703125 26.5625 -13.703125 C 28 -13.703125 29.019531 -14.132812 29.625 -15 C 30.238281 -15.863281 30.597656 -16.851562 30.703125 -17.96875 C 30.816406 -19.082031 30.875 -20.722656 30.875 -22.890625 L 30.875 -30.546875 L 49.65625 -30.546875 L 49.65625 -26.015625 C 49.65625 -16.804688 47.875 -10.023438 44.3125 -5.671875 C 40.75 -1.316406 34.613281 0.859375 25.90625 0.859375 Z M 30.875 -47.171875 L 30.875 -57.328125 C 30.875 -63.003906 29.472656 -65.84375 26.671875 -65.84375 C 23.503906 -65.84375 21.921875 -63.003906 21.921875 -57.328125 L 21.921875 -47.171875 Z M 30.875 -47.171875 "/></g></g></g><g fill="#000000" fill-opacity="1"><g transform="translate(217.402038, 382.554633)"><g><path d="M 3.78125 0 L 3.78125 -93.265625 L 23 -93.265625 L 23 0 Z M 3.78125 0 "/></g></g><g transform="translate(244.172987, 382.554633)"><g><path d="M 27.53125 0.859375 C 18.894531 0.859375 12.664062 -1.332031 8.84375 -5.71875 C 5.03125 -10.113281 3.125 -16.84375 3.125 -25.90625 L 3.125 -50.3125 C 3.125 -57.144531 3.863281 -62.703125 5.34375 -66.984375 C 6.820312 -71.265625 9.304688 -74.484375 12.796875 -76.640625 C 16.285156 -78.804688 21.125 -79.890625 27.3125 -79.890625 C 34.070312 -79.890625 39.578125 -78.125 43.828125 -74.59375 C 48.078125 -71.070312 50.203125 -66.144531 50.203125 -59.8125 L 50.203125 -47.71875 L 30.984375 -47.71875 L 30.984375 -58.828125 C 30.984375 -60.921875 30.691406 -62.523438 30.109375 -63.640625 C 29.535156 -64.753906 28.421875 -65.3125 26.765625 -65.3125 C 23.671875 -65.3125 22.125 -63.113281 22.125 -58.71875 L 22.125 -20.40625 C 22.125 -18.601562 22.5 -17.070312 23.25 -15.8125 C 24.007812 -14.550781 25.148438 -13.921875 26.671875 -13.921875 C 28.179688 -13.921875 29.3125 -14.53125 30.0625 -15.75 C 30.820312 -16.976562 31.164062 -18.566406 31.09375 -20.515625 L 30.984375 -33.796875 L 50.203125 -33.796875 L 50.203125 -19.96875 C 50.203125 -13.488281 48.09375 -8.394531 43.875 -4.6875 C 39.664062 -0.988281 34.21875 0.859375 27.53125 0.859375 Z M 27.53125 0.859375 "/></g></g></g><g fill="#000000" fill-opacity="1"><g transform="translate(297.175141, 382.554633)"><g><path d="M 26.765625 0.859375 C 11.003906 0.859375 3.125 -7.304688 3.125 -23.640625 L 3.125 -55.375 C 3.125 -62.863281 5.226562 -68.820312 9.4375 -73.25 C 13.65625 -77.675781 19.429688 -79.890625 26.765625 -79.890625 C 34.109375 -79.890625 39.882812 -77.675781 44.09375 -73.25 C 48.3125 -68.820312 50.421875 -62.863281 50.421875 -55.375 L 50.421875 -23.640625 C 50.421875 -7.304688 42.535156 0.859375 26.765625 0.859375 Z M 26.765625 -13.703125 C 28.285156 -13.703125 29.40625 -14.242188 30.125 -15.328125 C 30.84375 -16.410156 31.203125 -17.882812 31.203125 -19.75 L 31.203125 -58.40625 C 31.203125 -63.007812 29.722656 -65.3125 26.765625 -65.3125 C 23.816406 -65.3125 22.34375 -63.007812 22.34375 -58.40625 L 22.34375 -19.75 C 22.34375 -17.882812 22.703125 -16.410156 23.421875 -15.328125 C 24.140625 -14.242188 25.253906 -13.703125 26.765625 -13.703125 Z M 26.765625 -13.703125 "/></g></g><g transform="translate(350.824988, 382.554633)"><g><path d="M 3.78125 -79.015625 L 22.234375 -79.015625 L 22.234375 -69.84375 C 23.097656 -73.226562 24.570312 -75.75 26.65625 -77.40625 C 28.75 -79.0625 31.703125 -79.890625 35.515625 -79.890625 C 38.609375 -79.890625 41.285156 -79.1875 43.546875 -77.78125 C 45.816406 -76.375 47.421875 -74.445312 48.359375 -72 C 49.941406 -74.738281 51.703125 -76.738281 53.640625 -78 C 55.585938 -79.257812 58.289062 -79.890625 61.75 -79.890625 C 67.9375 -79.890625 72.234375 -78 74.640625 -74.21875 C 77.054688 -70.4375 78.265625 -64.945312 78.265625 -57.75 L 78.046875 0 L 59.046875 0 L 59.046875 -58.078125 C 59.046875 -63.191406 57.75 -65.75 55.15625 -65.75 C 53.363281 -65.75 52.070312 -64.863281 51.28125 -63.09375 C 50.488281 -61.332031 50.09375 -59.226562 50.09375 -56.78125 L 50.09375 0 L 31.203125 0 L 31.203125 -58.078125 C 31.203125 -60.304688 30.96875 -62.101562 30.5 -63.46875 C 30.03125 -64.84375 29.039062 -65.53125 27.53125 -65.53125 C 25.582031 -65.53125 24.210938 -64.578125 23.421875 -62.671875 C 22.628906 -60.765625 22.234375 -58.476562 22.234375 -55.8125 L 22.234375 0 L 3.78125 0 Z M 3.78125 -79.015625 "/></g></g><g transform="translate(432.649101, 382.554633)"><g><path d="M 25.90625 0.859375 C 17.769531 0.859375 11.9375 -1.367188 8.40625 -5.828125 C 4.882812 -10.285156 3.125 -16.941406 3.125 -25.796875 L 3.125 -57.53125 C 3.125 -64.800781 5.210938 -70.34375 9.390625 -74.15625 C 13.566406 -77.976562 19.394531 -79.890625 26.875 -79.890625 C 42.0625 -79.890625 49.65625 -72.4375 49.65625 -57.53125 L 49.65625 -51.8125 C 49.65625 -46.0625 49.582031 -41.382812 49.4375 -37.78125 L 22.015625 -37.78125 L 22.015625 -22.453125 C 22.015625 -19.722656 22.300781 -17.582031 22.875 -16.03125 C 23.457031 -14.476562 24.6875 -13.703125 26.5625 -13.703125 C 28 -13.703125 29.019531 -14.132812 29.625 -15 C 30.238281 -15.863281 30.597656 -16.851562 30.703125 -17.96875 C 30.816406 -19.082031 30.875 -20.722656 30.875 -22.890625 L 30.875 -30.546875 L 49.65625 -30.546875 L 49.65625 -26.015625 C 49.65625 -16.804688 47.875 -10.023438 44.3125 -5.671875 C 40.75 -1.316406 34.613281 0.859375 25.90625 0.859375 Z M 30.875 -47.171875 L 30.875 -57.328125 C 30.875 -63.003906 29.472656 -65.84375 26.671875 -65.84375 C 23.503906 -65.84375 21.921875 -63.003906 21.921875 -57.328125 L 21.921875 -47.171875 Z M 30.875 -47.171875 "/></g></g><g transform="translate(485.327422, 382.554633)"><g/></g><g transform="translate(510.587108, 382.554633)"><g><path d="M 20.078125 0.859375 C 15.109375 0.859375 11.6875 -0.179688 9.8125 -2.265625 C 7.945312 -4.347656 7.015625 -7.695312 7.015625 -12.3125 L 7.015625 -61.640625 L 1.734375 -61.640625 L 1.734375 -76 L 7.015625 -76 L 7.015625 -92.734375 L 25.375 -92.734375 L 25.375 -76 L 30.765625 -76 L 30.765625 -61.640625 L 25.375 -61.640625 L 25.375 -17.265625 C 25.375 -15.898438 25.476562 -14.894531 25.6875 -14.25 C 25.90625 -13.601562 26.484375 -13.28125 27.421875 -13.28125 C 28.140625 -13.28125 28.820312 -13.316406 29.46875 -13.390625 C 30.113281 -13.460938 30.546875 -13.5 30.765625 -13.5 L 30.765625 -0.546875 C 29.679688 -0.253906 28.113281 0.0507812 26.0625 0.375 C 24.019531 0.695312 22.023438 0.859375 20.078125 0.859375 Z M 20.078125 0.859375 "/></g></g><g transform="translate(543.511059, 382.554633)"><g><path d="M 26.765625 0.859375 C 11.003906 0.859375 3.125 -7.304688 3.125 -23.640625 L 3.125 -55.375 C 3.125 -62.863281 5.226562 -68.820312 9.4375 -73.25 C 13.65625 -77.675781 19.429688 -79.890625 26.765625 -79.890625 C 34.109375 -79.890625 39.882812 -77.675781 44.09375 -73.25 C 48.3125 -68.820312 50.421875 -62.863281 50.421875 -55.375 L 50.421875 -23.640625 C 50.421875 -7.304688 42.535156 0.859375 26.765625 0.859375 Z M 26.765625 -13.703125 C 28.285156 -13.703125 29.40625 -14.242188 30.125 -15.328125 C 30.84375 -16.410156 31.203125 -17.882812 31.203125 -19.75 L 31.203125 -58.40625 C 31.203125 -63.007812 29.722656 -65.3125 26.765625 -65.3125 C 23.816406 -65.3125 22.34375 -63.007812 22.34375 -58.40625 L 22.34375 -19.75 C 22.34375 -17.882812 22.703125 -16.410156 23.421875 -15.328125 C 24.140625 -14.242188 25.253906 -13.703125 26.765625 -13.703125 Z M 26.765625 -13.703125 "/></g></g></g><g fill="#000000" fill-opacity="1"><g transform="translate(597.151539, 382.554633)"><g/></g></g><g fill="#000000" fill-opacity="1"><g transform="translate(628.735639, 385.122771)"><g><path d="M 3.3125 0 L 3.3125 -94.8125 L 21.640625 -94.8125 L 21.640625 0 Z M 3.3125 0 "/></g></g></g><g fill="#000000" fill-opacity="1"><g transform="translate(649.15586, 385.122771)"><g><path d="M 19.75 0.890625 C 15.039062 0.890625 11.488281 -0.226562 9.09375 -2.46875 C 6.707031 -4.71875 5.128906 -7.703125 4.359375 -11.421875 C 3.585938 -15.140625 3.203125 -19.90625 3.203125 -25.71875 L 3.421875 -62.140625 C 3.421875 -67.878906 4.875 -72.566406 7.78125 -76.203125 C 10.6875 -79.847656 14.789062 -81.671875 20.09375 -81.671875 C 25.3125 -81.671875 29.207031 -79.941406 31.78125 -76.484375 L 31.78125 -95.359375 L 51.109375 -95.359375 L 51.109375 0 L 31.78125 0 L 31.78125 -8.609375 C 30.675781 -5.441406 29.1875 -3.066406 27.3125 -1.484375 C 25.4375 0.0976562 22.914062 0.890625 19.75 0.890625 Z M 27.15625 -14.234375 C 29.0625 -14.234375 30.304688 -15.171875 30.890625 -17.046875 C 31.484375 -18.929688 31.78125 -21.453125 31.78125 -24.609375 L 31.78125 -58.390625 C 31.78125 -60.742188 31.445312 -62.726562 30.78125 -64.34375 C 30.125 -65.96875 28.953125 -66.78125 27.265625 -66.78125 C 25.347656 -66.78125 24.078125 -66.023438 23.453125 -64.515625 C 22.828125 -63.003906 22.515625 -60.960938 22.515625 -58.390625 L 22.515625 -24.390625 C 22.515625 -17.617188 24.0625 -14.234375 27.15625 -14.234375 Z M 27.15625 -14.234375 "/></g></g></g><g fill="#000000" fill-opacity="1"><g transform="translate(699.489216, 385.122771)"><g><path d="M 26.484375 0.890625 C 18.171875 0.890625 12.210938 -1.390625 8.609375 -5.953125 C 5.003906 -10.515625 3.203125 -17.320312 3.203125 -26.375 L 3.203125 -58.828125 C 3.203125 -66.265625 5.332031 -71.929688 9.59375 -75.828125 C 13.863281 -79.722656 19.828125 -81.671875 27.484375 -81.671875 C 43.003906 -81.671875 50.765625 -74.054688 50.765625 -58.828125 L 50.765625 -52.984375 C 50.765625 -47.097656 50.691406 -42.3125 50.546875 -38.625 L 22.515625 -38.625 L 22.515625 -22.953125 C 22.515625 -20.160156 22.804688 -17.972656 23.390625 -16.390625 C 23.984375 -14.804688 25.238281 -14.015625 27.15625 -14.015625 C 28.625 -14.015625 29.671875 -14.457031 30.296875 -15.34375 C 30.921875 -16.226562 31.285156 -17.238281 31.390625 -18.375 C 31.503906 -19.519531 31.5625 -21.195312 31.5625 -23.40625 L 31.5625 -31.234375 L 50.765625 -31.234375 L 50.765625 -26.59375 C 50.765625 -17.175781 48.941406 -10.238281 45.296875 -5.78125 C 41.660156 -1.332031 35.390625 0.890625 26.484375 0.890625 Z M 31.5625 -48.234375 L 31.5625 -58.609375 C 31.5625 -64.421875 30.128906 -67.328125 27.265625 -67.328125 C 24.023438 -67.328125 22.40625 -64.421875 22.40625 -58.609375 L 22.40625 -48.234375 Z M 31.5625 -48.234375 "/></g></g></g><g fill="#000000" fill-opacity="1"><g transform="translate(748.718768, 385.122771)"><g><path d="M 18.546875 0.890625 C 12.285156 0.890625 7.992188 -1.1875 5.671875 -5.34375 C 3.359375 -9.507812 2.203125 -15.453125 2.203125 -23.171875 C 2.203125 -29.503906 3.03125 -34.363281 4.6875 -37.75 C 6.34375 -41.132812 8.640625 -43.617188 11.578125 -45.203125 C 14.523438 -46.785156 19.019531 -48.53125 25.0625 -50.4375 L 30.359375 -52.203125 L 30.359375 -60.484375 C 30.359375 -62.617188 29.929688 -64.253906 29.078125 -65.390625 C 28.234375 -66.535156 27.222656 -67.109375 26.046875 -67.109375 C 25.015625 -67.109375 24.113281 -66.628906 23.34375 -65.671875 C 22.570312 -64.710938 22.1875 -63.425781 22.1875 -61.8125 L 22.1875 -56.953125 L 3.421875 -56.953125 L 3.421875 -59.609375 C 3.421875 -67.546875 5.273438 -73.207031 8.984375 -76.59375 C 12.703125 -79.976562 18.757812 -81.671875 27.15625 -81.671875 C 33.851562 -81.671875 39.296875 -79.921875 43.484375 -76.421875 C 47.679688 -72.929688 49.78125 -67.988281 49.78125 -61.59375 L 49.78125 0 L 30.578125 0 L 30.578125 -9.609375 C 29.617188 -6.296875 28.085938 -3.71875 25.984375 -1.875 C 23.890625 -0.03125 21.410156 0.890625 18.546875 0.890625 Z M 26.15625 -14.125 C 27.625 -14.125 28.671875 -14.726562 29.296875 -15.9375 C 29.929688 -17.15625 30.25 -18.648438 30.25 -20.421875 L 30.25 -42.9375 C 27.375 -41.832031 25.253906 -40.429688 23.890625 -38.734375 C 22.535156 -37.046875 21.859375 -34.691406 21.859375 -31.671875 L 21.859375 -21.296875 C 21.859375 -16.515625 23.289062 -14.125 26.15625 -14.125 Z M 26.15625 -14.125 "/></g></g></g><g fill="#000000" fill-opacity="1"><g transform="translate(797.396419, 385.122771)"><g/></g></g><g fill="#000000" fill-opacity="1"><g transform="translate(818.58929, 385.122771)"><g><path d="M 3.203125 -27.484375 L 3.203125 -39.953125 L 31.015625 -39.953125 L 31.015625 -27.484375 Z M 3.203125 -27.484375 "/></g></g></g><g fill="#000000" fill-opacity="1"><g transform="translate(848.281468, 385.122771)"><g/></g></g><g fill="#000000" fill-opacity="1"><g transform="translate(869.474338, 385.122771)"><g><path d="M 26.703125 0.890625 C 18.097656 0.890625 11.878906 -1.242188 8.046875 -5.515625 C 4.222656 -9.785156 2.3125 -16.664062 2.3125 -26.15625 L 2.3125 -35.4375 L 20.96875 -35.4375 L 20.96875 -23.625 C 20.96875 -18.914062 22.476562 -16.5625 25.5 -16.5625 C 27.1875 -16.5625 28.359375 -17.054688 29.015625 -18.046875 C 29.679688 -19.035156 30.015625 -20.707031 30.015625 -23.0625 C 30.015625 -26.15625 29.644531 -28.710938 28.90625 -30.734375 C 28.175781 -32.765625 27.238281 -34.457031 26.09375 -35.8125 C 24.957031 -37.175781 22.921875 -39.289062 19.984375 -42.15625 L 11.8125 -50.328125 C 5.476562 -56.515625 2.3125 -63.359375 2.3125 -70.859375 C 2.3125 -78.953125 4.171875 -85.113281 7.890625 -89.34375 C 11.609375 -93.570312 17.035156 -95.6875 24.171875 -95.6875 C 32.703125 -95.6875 38.84375 -93.425781 42.59375 -88.90625 C 46.351562 -84.382812 48.234375 -77.300781 48.234375 -67.65625 L 28.921875 -67.65625 L 28.8125 -74.171875 C 28.8125 -75.421875 28.457031 -76.410156 27.75 -77.140625 C 27.050781 -77.878906 26.078125 -78.25 24.828125 -78.25 C 23.359375 -78.25 22.253906 -77.84375 21.515625 -77.03125 C 20.785156 -76.226562 20.421875 -75.128906 20.421875 -73.734375 C 20.421875 -70.640625 22.1875 -67.4375 25.71875 -64.125 L 36.75 -53.53125 C 39.332031 -51.03125 41.46875 -48.65625 43.15625 -46.40625 C 44.84375 -44.164062 46.203125 -41.519531 47.234375 -38.46875 C 48.265625 -35.414062 48.78125 -31.789062 48.78125 -27.59375 C 48.78125 -18.25 47.066406 -11.164062 43.640625 -6.34375 C 40.222656 -1.519531 34.578125 0.890625 26.703125 0.890625 Z M 26.703125 0.890625 "/></g></g></g><g fill="#000000" fill-opacity="1"><g transform="translate(915.723621, 385.122771)"><g><path d="M 26.484375 0.890625 C 18.171875 0.890625 12.210938 -1.390625 8.609375 -5.953125 C 5.003906 -10.515625 3.203125 -17.320312 3.203125 -26.375 L 3.203125 -58.828125 C 3.203125 -66.265625 5.332031 -71.929688 9.59375 -75.828125 C 13.863281 -79.722656 19.828125 -81.671875 27.484375 -81.671875 C 43.003906 -81.671875 50.765625 -74.054688 50.765625 -58.828125 L 50.765625 -52.984375 C 50.765625 -47.097656 50.691406 -42.3125 50.546875 -38.625 L 22.515625 -38.625 L 22.515625 -22.953125 C 22.515625 -20.160156 22.804688 -17.972656 23.390625 -16.390625 C 23.984375 -14.804688 25.238281 -14.015625 27.15625 -14.015625 C 28.625 -14.015625 29.671875 -14.457031 30.296875 -15.34375 C 30.921875 -16.226562 31.285156 -17.238281 31.390625 -18.375 C 31.503906 -19.519531 31.5625 -21.195312 31.5625 -23.40625 L 31.5625 -31.234375 L 50.765625 -31.234375 L 50.765625 -26.59375 C 50.765625 -17.175781 48.941406 -10.238281 45.296875 -5.78125 C 41.660156 -1.332031 35.390625 0.890625 26.484375 0.890625 Z M 31.5625 -48.234375 L 31.5625 -58.609375 C 31.5625 -64.421875 30.128906 -67.328125 27.265625 -67.328125 C 24.023438 -67.328125 22.40625 -64.421875 22.40625 -58.609375 L 22.40625 -48.234375 Z M 31.5625 -48.234375 "/></g></g></g><g fill="#000000" fill-opacity="1"><g transform="translate(964.953167, 385.122771)"><g><path d="M 18.546875 0.890625 C 12.285156 0.890625 7.992188 -1.1875 5.671875 -5.34375 C 3.359375 -9.507812 2.203125 -15.453125 2.203125 -23.171875 C 2.203125 -29.503906 3.03125 -34.363281 4.6875 -37.75 C 6.34375 -41.132812 8.640625 -43.617188 11.578125 -45.203125 C 14.523438 -46.785156 19.019531 -48.53125 25.0625 -50.4375 L 30.359375 -52.203125 L 30.359375 -60.484375 C 30.359375 -62.617188 29.929688 -64.253906 29.078125 -65.390625 C 28.234375 -66.535156 27.222656 -67.109375 26.046875 -67.109375 C 25.015625 -67.109375 24.113281 -66.628906 23.34375 -65.671875 C 22.570312 -64.710938 22.1875 -63.425781 22.1875 -61.8125 L 22.1875 -56.953125 L 3.421875 -56.953125 L 3.421875 -59.609375 C 3.421875 -67.546875 5.273438 -73.207031 8.984375 -76.59375 C 12.703125 -79.976562 18.757812 -81.671875 27.15625 -81.671875 C 33.851562 -81.671875 39.296875 -79.921875 43.484375 -76.421875 C 47.679688 -72.929688 49.78125 -67.988281 49.78125 -61.59375 L 49.78125 0 L 30.578125 0 L 30.578125 -9.609375 C 29.617188 -6.296875 28.085938 -3.71875 25.984375 -1.875 C 23.890625 -0.03125 21.410156 0.890625 18.546875 0.890625 Z M 26.15625 -14.125 C 27.625 -14.125 28.671875 -14.726562 29.296875 -15.9375 C 29.929688 -17.15625 30.25 -18.648438 30.25 -20.421875 L 30.25 -42.9375 C 27.375 -41.832031 25.253906 -40.429688 23.890625 -38.734375 C 22.535156 -37.046875 21.859375 -34.691406 21.859375 -31.671875 L 21.859375 -21.296875 C 21.859375 -16.515625 23.289062 -14.125 26.15625 -14.125 Z M 26.15625 -14.125 "/></g></g></g><g fill="#000000" fill-opacity="1"><g transform="translate(1013.63081, 385.122771)"><g><path d="M 3.859375 -80.796875 L 23.171875 -80.796875 L 23.171875 -71.859375 C 24.128906 -75.015625 25.800781 -77.457031 28.1875 -79.1875 C 30.582031 -80.914062 33.550781 -81.78125 37.09375 -81.78125 L 37.09375 -65.671875 C 34.363281 -65.671875 31.359375 -65.285156 28.078125 -64.515625 C 24.804688 -63.742188 23.171875 -62.84375 23.171875 -61.8125 L 23.171875 0 L 3.859375 0 Z M 3.859375 -80.796875 "/></g></g></g><g fill="#000000" fill-opacity="1"><g transform="translate(1046.965544, 385.122771)"><g><path d="M 28.140625 0.890625 C 19.316406 0.890625 12.953125 -1.351562 9.046875 -5.84375 C 5.148438 -10.332031 3.203125 -17.210938 3.203125 -26.484375 L 3.203125 -51.4375 C 3.203125 -58.425781 3.953125 -64.109375 5.453125 -68.484375 C 6.960938 -72.867188 9.503906 -76.160156 13.078125 -78.359375 C 16.648438 -80.566406 21.597656 -81.671875 27.921875 -81.671875 C 34.835938 -81.671875 40.46875 -79.867188 44.8125 -76.265625 C 49.15625 -72.660156 51.328125 -67.617188 51.328125 -61.140625 L 51.328125 -48.78125 L 31.671875 -48.78125 L 31.671875 -60.15625 C 31.671875 -62.289062 31.375 -63.925781 30.78125 -65.0625 C 30.195312 -66.207031 29.0625 -66.78125 27.375 -66.78125 C 24.207031 -66.78125 22.625 -64.535156 22.625 -60.046875 L 22.625 -20.859375 C 22.625 -19.015625 23.007812 -17.445312 23.78125 -16.15625 C 24.550781 -14.875 25.710938 -14.234375 27.265625 -14.234375 C 28.804688 -14.234375 29.960938 -14.859375 30.734375 -16.109375 C 31.503906 -17.359375 31.851562 -18.976562 31.78125 -20.96875 L 31.671875 -34.546875 L 51.328125 -34.546875 L 51.328125 -20.421875 C 51.328125 -13.796875 49.171875 -8.585938 44.859375 -4.796875 C 40.554688 -1.003906 34.984375 0.890625 28.140625 0.890625 Z M 28.140625 0.890625 "/></g></g></g><g fill="#000000" fill-opacity="1"><g transform="translate(1096.526236, 385.122771)"><g><path d="M 3.859375 -95.359375 L 23.734375 -95.359375 L 23.734375 -72.84375 C 25.796875 -78.726562 29.734375 -81.671875 35.546875 -81.671875 C 40.984375 -81.671875 45.097656 -79.941406 47.890625 -76.484375 C 50.691406 -73.023438 52.09375 -68.28125 52.09375 -62.25 L 52.09375 0 L 32.78125 0 L 32.78125 -61.03125 C 32.78125 -62.800781 32.375 -64.238281 31.5625 -65.34375 C 30.757812 -66.445312 29.582031 -67 28.03125 -67 C 26.707031 -67 25.660156 -66.425781 24.890625 -65.28125 C 24.117188 -64.144531 23.734375 -62.765625 23.734375 -61.140625 L 23.734375 0 L 3.859375 0 Z M 3.859375 -95.359375 "/></g></g></g><g fill="#000000" fill-opacity="1"><g transform="translate(1147.632269, 385.122771)"><g><path d="M 2.984375 0 L 2.984375 -16.109375 L 22.296875 -16.109375 L 22.296875 0 Z M 2.984375 0 "/></g></g></g><g fill="#000000" fill-opacity="1"><g transform="translate(1168.273268, 385.122771)"><g><path d="M 28.140625 0.890625 C 19.316406 0.890625 12.953125 -1.351562 9.046875 -5.84375 C 5.148438 -10.332031 3.203125 -17.210938 3.203125 -26.484375 L 3.203125 -51.4375 C 3.203125 -58.425781 3.953125 -64.109375 5.453125 -68.484375 C 6.960938 -72.867188 9.503906 -76.160156 13.078125 -78.359375 C 16.648438 -80.566406 21.597656 -81.671875 27.921875 -81.671875 C 34.835938 -81.671875 40.46875 -79.867188 44.8125 -76.265625 C 49.15625 -72.660156 51.328125 -67.617188 51.328125 -61.140625 L 51.328125 -48.78125 L 31.671875 -48.78125 L 31.671875 -60.15625 C 31.671875 -62.289062 31.375 -63.925781 30.78125 -65.0625 C 30.195312 -66.207031 29.0625 -66.78125 27.375 -66.78125 C 24.207031 -66.78125 22.625 -64.535156 22.625 -60.046875 L 22.625 -20.859375 C 22.625 -19.015625 23.007812 -17.445312 23.78125 -16.15625 C 24.550781 -14.875 25.710938 -14.234375 27.265625 -14.234375 C 28.804688 -14.234375 29.960938 -14.859375 30.734375 -16.109375 C 31.503906 -17.359375 31.851562 -18.976562 31.78125 -20.96875 L 31.671875 -34.546875 L 51.328125 -34.546875 L 51.328125 -20.421875 C 51.328125 -13.796875 49.171875 -8.585938 44.859375 -4.796875 C 40.554688 -1.003906 34.984375 0.890625 28.140625 0.890625 Z M 28.140625 0.890625 "/></g></g></g><g fill="#000000" fill-opacity="1"><g transform="translate(1217.833931, 385.122771)"><g><path d="M 27.375 0.890625 C 11.257812 0.890625 3.203125 -7.460938 3.203125 -24.171875 L 3.203125 -56.625 C 3.203125 -64.269531 5.351562 -70.351562 9.65625 -74.875 C 13.957031 -79.40625 19.863281 -81.671875 27.375 -81.671875 C 34.875 -81.671875 40.773438 -79.40625 45.078125 -74.875 C 49.390625 -70.351562 51.546875 -64.269531 51.546875 -56.625 L 51.546875 -24.171875 C 51.546875 -7.460938 43.488281 0.890625 27.375 0.890625 Z M 27.375 -14.015625 C 28.914062 -14.015625 30.050781 -14.566406 30.78125 -15.671875 C 31.519531 -16.773438 31.890625 -18.285156 31.890625 -20.203125 L 31.890625 -59.71875 C 31.890625 -64.425781 30.382812 -66.78125 27.375 -66.78125 C 24.351562 -66.78125 22.84375 -64.425781 22.84375 -59.71875 L 22.84375 -20.203125 C 22.84375 -18.285156 23.210938 -16.773438 23.953125 -15.671875 C 24.691406 -14.566406 25.832031 -14.015625 27.375 -14.015625 Z M 27.375 -14.015625 "/></g></g></g><g fill="#000000" fill-opacity="1"><g transform="translate(1268.056887, 385.122771)"><g><path d="M 3.859375 -80.796875 L 22.734375 -80.796875 L 22.734375 -71.40625 C 23.617188 -74.863281 25.128906 -77.4375 27.265625 -79.125 C 29.398438 -80.820312 32.414062 -81.671875 36.3125 -81.671875 C 39.476562 -81.671875 42.21875 -80.953125 44.53125 -79.515625 C 46.851562 -78.085938 48.492188 -76.125 49.453125 -73.625 C 51.066406 -76.414062 52.867188 -78.453125 54.859375 -79.734375 C 56.847656 -81.023438 59.609375 -81.671875 63.140625 -81.671875 C 69.460938 -81.671875 73.851562 -79.738281 76.3125 -75.875 C 78.78125 -72.019531 80.015625 -66.410156 80.015625 -59.046875 L 79.796875 0 L 60.375 0 L 60.375 -59.375 C 60.375 -64.601562 59.050781 -67.21875 56.40625 -67.21875 C 54.5625 -67.21875 53.234375 -66.316406 52.421875 -64.515625 C 51.617188 -62.710938 51.21875 -60.5625 51.21875 -58.0625 L 51.21875 0 L 31.890625 0 L 31.890625 -59.375 C 31.890625 -61.65625 31.648438 -63.492188 31.171875 -64.890625 C 30.703125 -66.296875 29.691406 -67 28.140625 -67 C 26.160156 -67 24.765625 -66.019531 23.953125 -64.0625 C 23.140625 -62.113281 22.734375 -59.78125 22.734375 -57.0625 L 22.734375 0 L 3.859375 0 Z M 3.859375 -80.796875 "/></g></g></g><g clip-path="url(#b2664263b5)"><g clip-path="url(#01c3ea2216)"><g clip-path="url(#b3185e6395)"><path fill="#ffde59" d="M 831.816406 968.871094 C 620.484375 977.914062 441.917969 812.863281 432.929688 602.710938 C 423.9375 392.558594 587.757812 212.863281 799.089844 203.820312 C 1010.425781 194.78125 1188.9375 358.648438 1197.980469 569.984375 C 1207.019531 781.316406 1041.96875 959.882812 831.816406 968.871094 Z M 800.101562 227.433594 C 601.753906 235.917969 448.058594 403.355469 456.542969 601.699219 C 465.027344 800.046875 632.460938 953.746094 830.808594 945.257812 C 1029.152344 936.773438 1182.851562 769.339844 1174.367188 570.992188 C 1165.882812 372.648438 997.265625 219 800.101562 227.433594 Z M 800.101562 227.433594 " fill-opacity="1" fill-rule="nonzero"/></g></g></g><g clip-path="url(#b7686d271d)"><g clip-path="url(#abf88b4a02)"><g clip-path="url(#4e10824470)"><path fill="#38b6ff" d="M 805.121094 999.46875 C 573.59375 945.050781 430.425781 712.125 484.539062 481.890625 C 538.652344 251.65625 770.589844 106.890625 1002.117188 161.308594 C 1233.648438 215.726562 1377.117188 447.359375 1322.699219 678.886719 C 1268.285156 910.414062 1035.359375 1053.582031 805.121094 999.46875 Z M 996.039062 187.175781 C 778.738281 136.105469 561.484375 270.667969 510.410156 487.96875 C 459.335938 705.269531 593.902344 922.527344 811.203125 973.601562 C 1028.503906 1024.671875 1245.757812 890.109375 1296.832031 672.808594 C 1347.90625 455.507812 1212.046875 237.945312 996.039062 187.175781 Z M 996.039062 187.175781 " fill-opacity="1" fill-rule="nonzero"/></g></g></g></svg>