<svg xmlns="http://www.w3.org/2000/svg" xmlns:xlink="http://www.w3.org/1999/xlink" width="1000" zoomAndPan="magnify" viewBox="0 0 750 749.999995" height="1000" preserveAspectRatio="xMidYMid meet" version="1.0"><defs><g/><clipPath id="438a36a72a"><path d="M 187 255 L 335 255 L 335 443 L 187 443 Z M 187 255 " clip-rule="nonzero"/></clipPath><clipPath id="47525bdd03"><path d="M 187.296875 258.8125 L 330.511719 255.597656 L 334.636719 439.300781 L 191.421875 442.519531 Z M 187.296875 258.8125 " clip-rule="nonzero"/></clipPath><clipPath id="90643f01c8"><path d="M 8.363281 262.832031 L 618.710938 249.125 L 632.421875 859.46875 L 22.074219 873.179688 Z M 8.363281 262.832031 " clip-rule="nonzero"/></clipPath><clipPath id="2eafdb9916"><path d="M 164 215 L 367 215 L 367 402 L 164 402 Z M 164 215 " clip-rule="nonzero"/></clipPath><clipPath id="d1a4fe34d2"><path d="M 211.671875 163.949219 L 366.453125 200.328125 L 319.265625 401.105469 L 164.480469 364.726562 Z M 211.671875 163.949219 " clip-rule="nonzero"/></clipPath><clipPath id="3c658ef2a4"><path d="M 135.785156 146.113281 L 803.832031 303.125 L 646.816406 971.171875 L -21.230469 814.15625 Z M 135.785156 146.113281 " clip-rule="nonzero"/></clipPath></defs><g fill="#000000" fill-opacity="1"><g transform="translate(174.674782, 410.25)"><g><path d="M 2.640625 0 L 2.640625 -75.59375 L 17.25 -75.59375 L 17.25 0 Z M 2.640625 0 "/></g></g></g><g fill="#000000" fill-opacity="1"><g transform="translate(190.953916, 410.25)"><g><path d="M 15.75 0.703125 C 12 0.703125 9.171875 -0.1875 7.265625 -1.96875 C 5.359375 -3.757812 4.09375 -6.132812 3.46875 -9.09375 C 2.851562 -12.0625 2.546875 -15.863281 2.546875 -20.5 L 2.734375 -49.546875 C 2.734375 -54.117188 3.890625 -57.859375 6.203125 -60.765625 C 8.523438 -63.671875 11.796875 -65.125 16.015625 -65.125 C 20.179688 -65.125 23.289062 -63.742188 25.34375 -60.984375 L 25.34375 -76.03125 L 40.75 -76.03125 L 40.75 0 L 25.34375 0 L 25.34375 -6.859375 C 24.46875 -4.335938 23.28125 -2.445312 21.78125 -1.1875 C 20.28125 0.0703125 18.269531 0.703125 15.75 0.703125 Z M 21.640625 -11.359375 C 23.171875 -11.359375 24.171875 -12.101562 24.640625 -13.59375 C 25.109375 -15.09375 25.34375 -17.101562 25.34375 -19.625 L 25.34375 -46.546875 C 25.34375 -48.429688 25.078125 -50.015625 24.546875 -51.296875 C 24.023438 -52.585938 23.085938 -53.234375 21.734375 -53.234375 C 20.210938 -53.234375 19.203125 -52.628906 18.703125 -51.421875 C 18.203125 -50.222656 17.953125 -48.597656 17.953125 -46.546875 L 17.953125 -19.453125 C 17.953125 -14.054688 19.179688 -11.359375 21.640625 -11.359375 Z M 21.640625 -11.359375 "/></g></g></g><g fill="#000000" fill-opacity="1"><g transform="translate(231.079996, 410.25)"><g><path d="M 21.125 0.703125 C 14.488281 0.703125 9.734375 -1.113281 6.859375 -4.75 C 3.984375 -8.382812 2.546875 -13.8125 2.546875 -21.03125 L 2.546875 -46.90625 C 2.546875 -52.832031 4.25 -57.347656 7.65625 -60.453125 C 11.0625 -63.566406 15.8125 -65.125 21.90625 -65.125 C 34.289062 -65.125 40.484375 -59.050781 40.484375 -46.90625 L 40.484375 -42.234375 C 40.484375 -37.546875 40.421875 -33.734375 40.296875 -30.796875 L 17.953125 -30.796875 L 17.953125 -18.296875 C 17.953125 -16.066406 18.1875 -14.320312 18.65625 -13.0625 C 19.125 -11.800781 20.117188 -11.171875 21.640625 -11.171875 C 22.816406 -11.171875 23.65625 -11.519531 24.15625 -12.21875 C 24.65625 -12.925781 24.945312 -13.734375 25.03125 -14.640625 C 25.125 -15.554688 25.171875 -16.894531 25.171875 -18.65625 L 25.171875 -24.90625 L 40.484375 -24.90625 L 40.484375 -21.203125 C 40.484375 -13.691406 39.03125 -8.160156 36.125 -4.609375 C 33.21875 -1.066406 28.21875 0.703125 21.125 0.703125 Z M 25.171875 -38.453125 L 25.171875 -46.734375 C 25.171875 -51.367188 24.023438 -53.6875 21.734375 -53.6875 C 19.148438 -53.6875 17.859375 -51.367188 17.859375 -46.734375 L 17.859375 -38.453125 Z M 25.171875 -38.453125 "/></g></g></g><g fill="#000000" fill-opacity="1"><g transform="translate(270.326116, 410.25)"><g><path d="M 14.78125 0.703125 C 9.789062 0.703125 6.375 -0.953125 4.53125 -4.265625 C 2.6875 -7.578125 1.765625 -12.316406 1.765625 -18.484375 C 1.765625 -23.523438 2.421875 -27.394531 3.734375 -30.09375 C 5.054688 -32.789062 6.890625 -34.769531 9.234375 -36.03125 C 11.585938 -37.289062 15.164062 -38.6875 19.96875 -40.21875 L 24.203125 -41.625 L 24.203125 -48.21875 C 24.203125 -49.925781 23.863281 -51.234375 23.1875 -52.140625 C 22.507812 -53.046875 21.703125 -53.5 20.765625 -53.5 C 19.941406 -53.5 19.222656 -53.117188 18.609375 -52.359375 C 17.992188 -51.597656 17.6875 -50.570312 17.6875 -49.28125 L 17.6875 -45.40625 L 2.734375 -45.40625 L 2.734375 -47.515625 C 2.734375 -53.859375 4.210938 -58.378906 7.171875 -61.078125 C 10.128906 -63.773438 14.953125 -65.125 21.640625 -65.125 C 26.984375 -65.125 31.328125 -63.726562 34.671875 -60.9375 C 38.015625 -58.15625 39.6875 -54.210938 39.6875 -49.109375 L 39.6875 0 L 24.375 0 L 24.375 -7.65625 C 23.613281 -5.019531 22.394531 -2.96875 20.71875 -1.5 C 19.050781 -0.03125 17.070312 0.703125 14.78125 0.703125 Z M 20.859375 -11.265625 C 22.023438 -11.265625 22.859375 -11.75 23.359375 -12.71875 C 23.859375 -13.6875 24.109375 -14.875 24.109375 -16.28125 L 24.109375 -34.234375 C 21.828125 -33.347656 20.140625 -32.226562 19.046875 -30.875 C 17.960938 -29.53125 17.421875 -27.65625 17.421875 -25.25 L 17.421875 -16.984375 C 17.421875 -13.171875 18.566406 -11.265625 20.859375 -11.265625 Z M 20.859375 -11.265625 "/></g></g></g><g fill="#000000" fill-opacity="1"><g transform="translate(309.132257, 410.25)"><g><path d="M 2.546875 -21.90625 L 2.546875 -31.859375 L 24.734375 -31.859375 L 24.734375 -21.90625 Z M 2.546875 -21.90625 "/></g></g></g><g fill="#000000" fill-opacity="1"><g transform="translate(332.803055, 410.25)"><g><path d="M 21.296875 0.703125 C 14.429688 0.703125 9.472656 -0.992188 6.421875 -4.390625 C 3.367188 -7.796875 1.84375 -13.285156 1.84375 -20.859375 L 1.84375 -28.25 L 16.71875 -28.25 L 16.71875 -18.828125 C 16.71875 -15.078125 17.921875 -13.203125 20.328125 -13.203125 C 21.679688 -13.203125 22.617188 -13.597656 23.140625 -14.390625 C 23.671875 -15.179688 23.9375 -16.515625 23.9375 -18.390625 C 23.9375 -20.859375 23.640625 -22.894531 23.046875 -24.5 C 22.460938 -26.113281 21.71875 -27.460938 20.8125 -28.546875 C 19.90625 -29.640625 18.273438 -31.328125 15.921875 -33.609375 L 9.421875 -40.125 C 4.367188 -45.050781 1.84375 -50.507812 1.84375 -56.5 C 1.84375 -62.945312 3.320312 -67.859375 6.28125 -71.234375 C 9.25 -74.609375 13.578125 -76.296875 19.265625 -76.296875 C 26.078125 -76.296875 30.976562 -74.488281 33.96875 -70.875 C 36.957031 -67.269531 38.453125 -61.625 38.453125 -53.9375 L 23.0625 -53.9375 L 22.96875 -59.140625 C 22.96875 -60.128906 22.6875 -60.914062 22.125 -61.5 C 21.570312 -62.09375 20.796875 -62.390625 19.796875 -62.390625 C 18.628906 -62.390625 17.75 -62.066406 17.15625 -61.421875 C 16.570312 -60.773438 16.28125 -59.894531 16.28125 -58.78125 C 16.28125 -56.320312 17.6875 -53.769531 20.5 -51.125 L 29.296875 -42.6875 C 31.359375 -40.6875 33.0625 -38.789062 34.40625 -37 C 35.757812 -35.207031 36.84375 -33.09375 37.65625 -30.65625 C 38.476562 -28.226562 38.890625 -25.34375 38.890625 -22 C 38.890625 -14.550781 37.523438 -8.90625 34.796875 -5.0625 C 32.078125 -1.21875 27.578125 0.703125 21.296875 0.703125 Z M 21.296875 0.703125 "/></g></g></g><g fill="#000000" fill-opacity="1"><g transform="translate(369.673285, 410.25)"><g><path d="M 21.125 0.703125 C 14.488281 0.703125 9.734375 -1.113281 6.859375 -4.75 C 3.984375 -8.382812 2.546875 -13.8125 2.546875 -21.03125 L 2.546875 -46.90625 C 2.546875 -52.832031 4.25 -57.347656 7.65625 -60.453125 C 11.0625 -63.566406 15.8125 -65.125 21.90625 -65.125 C 34.289062 -65.125 40.484375 -59.050781 40.484375 -46.90625 L 40.484375 -42.234375 C 40.484375 -37.546875 40.421875 -33.734375 40.296875 -30.796875 L 17.953125 -30.796875 L 17.953125 -18.296875 C 17.953125 -16.066406 18.1875 -14.320312 18.65625 -13.0625 C 19.125 -11.800781 20.117188 -11.171875 21.640625 -11.171875 C 22.816406 -11.171875 23.65625 -11.519531 24.15625 -12.21875 C 24.65625 -12.925781 24.945312 -13.734375 25.03125 -14.640625 C 25.125 -15.554688 25.171875 -16.894531 25.171875 -18.65625 L 25.171875 -24.90625 L 40.484375 -24.90625 L 40.484375 -21.203125 C 40.484375 -13.691406 39.03125 -8.160156 36.125 -4.609375 C 33.21875 -1.066406 28.21875 0.703125 21.125 0.703125 Z M 25.171875 -38.453125 L 25.171875 -46.734375 C 25.171875 -51.367188 24.023438 -53.6875 21.734375 -53.6875 C 19.148438 -53.6875 17.859375 -51.367188 17.859375 -46.734375 L 17.859375 -38.453125 Z M 25.171875 -38.453125 "/></g></g></g><g fill="#000000" fill-opacity="1"><g transform="translate(408.9194, 410.25)"><g><path d="M 14.78125 0.703125 C 9.789062 0.703125 6.375 -0.953125 4.53125 -4.265625 C 2.6875 -7.578125 1.765625 -12.316406 1.765625 -18.484375 C 1.765625 -23.523438 2.421875 -27.394531 3.734375 -30.09375 C 5.054688 -32.789062 6.890625 -34.769531 9.234375 -36.03125 C 11.585938 -37.289062 15.164062 -38.6875 19.96875 -40.21875 L 24.203125 -41.625 L 24.203125 -48.21875 C 24.203125 -49.925781 23.863281 -51.234375 23.1875 -52.140625 C 22.507812 -53.046875 21.703125 -53.5 20.765625 -53.5 C 19.941406 -53.5 19.222656 -53.117188 18.609375 -52.359375 C 17.992188 -51.597656 17.6875 -50.570312 17.6875 -49.28125 L 17.6875 -45.40625 L 2.734375 -45.40625 L 2.734375 -47.515625 C 2.734375 -53.859375 4.210938 -58.378906 7.171875 -61.078125 C 10.128906 -63.773438 14.953125 -65.125 21.640625 -65.125 C 26.984375 -65.125 31.328125 -63.726562 34.671875 -60.9375 C 38.015625 -58.15625 39.6875 -54.210938 39.6875 -49.109375 L 39.6875 0 L 24.375 0 L 24.375 -7.65625 C 23.613281 -5.019531 22.394531 -2.96875 20.71875 -1.5 C 19.050781 -0.03125 17.070312 0.703125 14.78125 0.703125 Z M 20.859375 -11.265625 C 22.023438 -11.265625 22.859375 -11.75 23.359375 -12.71875 C 23.859375 -13.6875 24.109375 -14.875 24.109375 -16.28125 L 24.109375 -34.234375 C 21.828125 -33.347656 20.140625 -32.226562 19.046875 -30.875 C 17.960938 -29.53125 17.421875 -27.65625 17.421875 -25.25 L 17.421875 -16.984375 C 17.421875 -13.171875 18.566406 -11.265625 20.859375 -11.265625 Z M 20.859375 -11.265625 "/></g></g></g><g fill="#000000" fill-opacity="1"><g transform="translate(447.725535, 410.25)"><g><path d="M 3.078125 -64.421875 L 18.484375 -64.421875 L 18.484375 -57.28125 C 19.242188 -59.8125 20.578125 -61.765625 22.484375 -63.140625 C 24.390625 -64.515625 26.75 -65.203125 29.5625 -65.203125 L 29.5625 -52.359375 C 27.394531 -52.359375 25.003906 -52.050781 22.390625 -51.4375 C 19.785156 -50.820312 18.484375 -50.101562 18.484375 -49.28125 L 18.484375 0 L 3.078125 0 Z M 3.078125 -64.421875 "/></g></g></g><g fill="#000000" fill-opacity="1"><g transform="translate(474.300203, 410.25)"><g><path d="M 22.4375 0.703125 C 15.394531 0.703125 10.316406 -1.082031 7.203125 -4.65625 C 4.097656 -8.238281 2.546875 -13.726562 2.546875 -21.125 L 2.546875 -41.015625 C 2.546875 -46.585938 3.144531 -51.117188 4.34375 -54.609375 C 5.550781 -58.097656 7.578125 -60.722656 10.421875 -62.484375 C 13.273438 -64.242188 17.222656 -65.125 22.265625 -65.125 C 27.773438 -65.125 32.257812 -63.6875 35.71875 -60.8125 C 39.1875 -57.9375 40.921875 -53.914062 40.921875 -48.75 L 40.921875 -38.890625 L 25.25 -38.890625 L 25.25 -47.953125 C 25.25 -49.660156 25.015625 -50.96875 24.546875 -51.875 C 24.078125 -52.78125 23.171875 -53.234375 21.828125 -53.234375 C 19.304688 -53.234375 18.046875 -51.445312 18.046875 -47.875 L 18.046875 -16.625 C 18.046875 -15.164062 18.351562 -13.921875 18.96875 -12.890625 C 19.582031 -11.867188 20.503906 -11.359375 21.734375 -11.359375 C 22.960938 -11.359375 23.882812 -11.851562 24.5 -12.84375 C 25.125 -13.84375 25.40625 -15.132812 25.34375 -16.71875 L 25.25 -27.546875 L 40.921875 -27.546875 L 40.921875 -16.28125 C 40.921875 -11 39.203125 -6.847656 35.765625 -3.828125 C 32.335938 -0.804688 27.894531 0.703125 22.4375 0.703125 Z M 22.4375 0.703125 "/></g></g></g><g fill="#000000" fill-opacity="1"><g transform="translate(513.81031, 410.25)"><g><path d="M 3.078125 -76.03125 L 18.921875 -76.03125 L 18.921875 -58.078125 C 20.566406 -62.773438 23.707031 -65.125 28.34375 -65.125 C 32.675781 -65.125 35.957031 -63.742188 38.1875 -60.984375 C 40.414062 -58.222656 41.53125 -54.4375 41.53125 -49.625 L 41.53125 0 L 26.140625 0 L 26.140625 -48.65625 C 26.140625 -50.070312 25.816406 -51.21875 25.171875 -52.09375 C 24.523438 -52.976562 23.585938 -53.421875 22.359375 -53.421875 C 21.296875 -53.421875 20.457031 -52.960938 19.84375 -52.046875 C 19.226562 -51.140625 18.921875 -50.039062 18.921875 -48.75 L 18.921875 0 L 3.078125 0 Z M 3.078125 -76.03125 "/></g></g></g><g clip-path="url(#438a36a72a)"><g clip-path="url(#47525bdd03)"><g clip-path="url(#90643f01c8)"><path fill="#ffde59" d="M 327.25 866.324219 C 158.648438 870.113281 18.984375 735.664062 15.21875 568.007812 C 11.453125 400.351562 144.9375 259.765625 313.539062 255.976562 C 482.136719 252.191406 621.777344 385.699219 625.566406 554.296875 C 629.351562 722.894531 494.90625 862.558594 327.25 866.324219 Z M 313.960938 274.816406 C 155.722656 278.371094 30.503906 409.34375 34.058594 567.582031 C 37.613281 725.820312 168.585938 851.042969 326.824219 847.488281 C 485.0625 843.933594 610.28125 712.957031 606.726562 554.71875 C 603.171875 396.480469 471.257812 271.28125 313.960938 274.816406 Z M 313.960938 274.816406 " fill-opacity="1" fill-rule="nonzero"/></g></g></g><g clip-path="url(#2eafdb9916)"><g clip-path="url(#d1a4fe34d2)"><g clip-path="url(#3c658ef2a4)"><path fill="#38b6ff" d="M 312.792969 892.664062 C 128.257812 849.292969 14.148438 663.640625 57.277344 480.132812 C 100.410156 296.628906 285.269531 181.246094 469.808594 224.617188 C 654.34375 267.992188 768.695312 452.613281 725.324219 637.148438 C 681.953125 821.6875 496.300781 935.796875 312.792969 892.664062 Z M 464.960938 245.238281 C 291.765625 204.53125 118.605469 311.785156 77.898438 484.980469 C 37.1875 658.179688 144.441406 831.339844 317.640625 872.046875 C 490.835938 912.753906 663.996094 805.5 704.707031 632.300781 C 745.414062 459.105469 637.128906 285.703125 464.960938 245.238281 Z M 464.960938 245.238281 " fill-opacity="1" fill-rule="nonzero"/></g></g></g></svg>