<svg xmlns="http://www.w3.org/2000/svg" xmlns:xlink="http://www.w3.org/1999/xlink" width="500" zoomAndPan="magnify" viewBox="0 0 375 374.999991" height="500" preserveAspectRatio="xMidYMid meet" version="1.0"><defs><clipPath id="f6e42a833a"><path d="M 112.5 112.5 L 262.5 112.5 L 262.5 262.5 L 112.5 262.5 Z M 112.5 112.5 " clip-rule="nonzero"/></clipPath></defs><g clip-path="url(#f6e42a833a)"><path fill="#000000" d="M 187.5 112.5 C 146.136719 112.5 112.5 146.136719 112.5 187.5 C 112.5 228.863281 146.136719 262.5 187.5 262.5 C 228.863281 262.5 262.5 228.863281 262.5 187.5 C 262.5 146.136719 228.816406 112.5 187.5 112.5 Z M 187.5 246.058594 C 155.175781 246.058594 128.894531 219.777344 128.894531 187.5 C 128.894531 155.222656 155.175781 128.894531 187.5 128.894531 C 219.824219 128.894531 246.105469 155.175781 246.105469 187.5 C 246.105469 219.824219 219.777344 246.058594 187.5 246.058594 Z M 187.5 246.058594 " fill-opacity="1" fill-rule="nonzero"/></g><path fill="#000000" d="M 159.859375 187.5 C 159.859375 202.726562 172.273438 215.140625 187.5 215.140625 C 194.902344 215.140625 201.835938 212.28125 207.035156 207.035156 L 218.652344 218.605469 C 210.359375 226.945312 199.257812 231.488281 187.5 231.488281 C 163.234375 231.488281 143.464844 211.71875 143.464844 187.453125 C 143.464844 163.1875 163.234375 143.417969 187.5 143.417969 C 199.257812 143.417969 210.3125 148.007812 218.652344 156.300781 L 207.035156 167.871094 C 201.835938 162.671875 194.902344 159.765625 187.5 159.765625 C 172.226562 159.859375 159.859375 172.226562 159.859375 187.5 Z M 159.859375 187.5 " fill-opacity="1" fill-rule="nonzero"/></svg>