<svg xmlns="http://www.w3.org/2000/svg" xmlns:xlink="http://www.w3.org/1999/xlink" width="500" zoomAndPan="magnify" viewBox="0 0 375 374.999991" height="500" preserveAspectRatio="xMidYMid meet" version="1.0"><defs><clipPath id="2d636aa25a"><path d="M 121.21875 134 L 224 134 L 224 262.5 L 121.21875 262.5 Z M 121.21875 134 " clip-rule="nonzero"/></clipPath><clipPath id="ea9ce9b808"><path d="M 151 112.5 L 253.96875 112.5 L 253.96875 241 L 151 241 Z M 151 112.5 " clip-rule="nonzero"/></clipPath></defs><g clip-path="url(#2d636aa25a)"><path fill="#000000" d="M 121.121094 134.882812 L 121.121094 262.394531 L 223.429688 262.394531 L 223.429688 170.144531 L 188.117188 134.882812 Z M 189.582031 143.40625 L 214.894531 168.679688 L 189.582031 168.679688 Z M 126.121094 257.402344 L 126.121094 139.875 L 184.582031 139.875 L 184.582031 173.675781 L 218.429688 173.675781 L 218.429688 257.402344 Z M 126.121094 257.402344 " fill-opacity="1" fill-rule="nonzero"/></g><path fill="#000000" d="M 134.199219 181.355469 L 210.351562 181.355469 L 210.351562 186.347656 L 134.199219 186.347656 Z M 134.199219 181.355469 " fill-opacity="1" fill-rule="nonzero"/><path fill="#000000" d="M 134.199219 244.726562 L 210.351562 244.726562 L 210.351562 249.71875 L 134.199219 249.71875 Z M 134.199219 244.726562 " fill-opacity="1" fill-rule="nonzero"/><path fill="#000000" d="M 134.199219 232.050781 L 210.351562 232.050781 L 210.351562 237.042969 L 134.199219 237.042969 Z M 134.199219 232.050781 " fill-opacity="1" fill-rule="nonzero"/><path fill="#000000" d="M 134.199219 219.378906 L 210.351562 219.378906 L 210.351562 224.371094 L 134.199219 224.371094 Z M 134.199219 219.378906 " fill-opacity="1" fill-rule="nonzero"/><path fill="#000000" d="M 134.199219 206.703125 L 210.351562 206.703125 L 210.351562 211.695312 L 134.199219 211.695312 Z M 134.199219 206.703125 " fill-opacity="1" fill-rule="nonzero"/><path fill="#000000" d="M 134.199219 194.027344 L 210.351562 194.027344 L 210.351562 199.019531 L 134.199219 199.019531 Z M 134.199219 194.027344 " fill-opacity="1" fill-rule="nonzero"/><path fill="#000000" d="M 134.199219 156.007812 L 172.273438 156.007812 L 172.273438 161 L 134.199219 161 Z M 134.199219 156.007812 " fill-opacity="1" fill-rule="nonzero"/><path fill="#000000" d="M 176.507812 156.007812 L 180.734375 156.007812 L 180.734375 161 L 176.507812 161 Z M 176.507812 156.007812 " fill-opacity="1" fill-rule="nonzero"/><path fill="#000000" d="M 134.199219 168.679688 L 172.273438 168.679688 L 172.273438 173.675781 L 134.199219 173.675781 Z M 134.199219 168.679688 " fill-opacity="1" fill-rule="nonzero"/><path fill="#000000" d="M 176.507812 168.679688 L 180.734375 168.679688 L 180.734375 173.675781 L 176.507812 173.675781 Z M 176.507812 168.679688 " fill-opacity="1" fill-rule="nonzero"/><path fill="#000000" d="M 134.199219 143.332031 L 172.273438 143.332031 L 172.273438 148.324219 L 134.199219 148.324219 Z M 134.199219 143.332031 " fill-opacity="1" fill-rule="nonzero"/><path fill="#000000" d="M 176.507812 143.332031 L 180.734375 143.332031 L 180.734375 148.324219 L 176.507812 148.324219 Z M 176.507812 143.332031 " fill-opacity="1" fill-rule="nonzero"/><g clip-path="url(#ea9ce9b808)"><path fill="#000000" d="M 218.503906 112.605469 L 151.507812 112.605469 L 151.507812 129.023438 L 156.507812 129.023438 L 156.507812 117.597656 L 214.96875 117.597656 L 214.96875 151.394531 L 248.816406 151.394531 L 248.816406 235.125 L 229.292969 235.125 L 229.292969 240.117188 L 253.8125 240.117188 L 253.8125 147.867188 Z M 219.96875 121.128906 L 245.277344 146.402344 L 219.96875 146.402344 Z M 219.96875 121.128906 " fill-opacity="1" fill-rule="nonzero"/></g></svg>